<?xml version="1.0" encoding="UTF-8"?>
<svg width="1009px" height="780px" viewBox="0 0 1009 780" version="1.1" xmlns="http://www.w3.org/2000/svg" xmlns:xlink="http://www.w3.org/1999/xlink">
    <title>illustration</title>
    <defs>
        <path d="M990.895336,568.132824 C977.743972,603.480048 913.504896,632.519739 913.504896,632.519739 C910.005648,633.757796 906.50559,634.982936 903.004722,636.195159 L901.975865,636.549883 C901.939381,636.549883 901.905329,636.576711 901.868845,636.585653 C868.405469,648.157413 834.8748,658.611344 801.276839,667.947446 C797.417613,669.024536 793.559199,670.085728 789.701595,671.131021 C769.270402,676.669488 748.839209,681.788646 728.408016,686.488493 L724.217189,687.448335 C722.293251,687.904409 720.379043,688.342598 718.462403,688.75992 C717.066271,689.058008 715.667707,689.356095 714.269143,689.654183 C708.650565,690.918074 703.010097,692.155138 697.391519,693.305756 C694.341433,693.952606 691.310806,694.599456 688.289909,695.216497 C660.576455,700.852339 632.880027,705.721103 605.200624,709.822788 C602.02406,710.293766 598.847496,710.753815 595.670932,711.202933 C585.977466,712.580098 576.291297,713.858893 566.612425,715.03932 C506.839024,722.372274 447.593428,726 389.1967,726 C302.276568,726 164.208554,708.279208 134.743217,701.750576 C105.277879,695.221945 57.6811346,667.160495 51.5323184,661.347787 C42.9779724,653.263653 35.9656951,644.902296 30.279013,636.326317 C-5.92068296,581.749464 11.5747422,518.465474 27.1170427,462.094134 C38.9209212,419.270874 49.6010842,380.439006 34.7544172,352.445603 C-32.4933954,225.680884 5.89535703,107.125497 81.3715894,34.6604089 C194.280686,-73.7450969 376.439366,103.420268 475.007711,140.418897 C610.588136,191.308407 913.504896,-84.1781617 892.796422,198.003453 C886.868944,278.785184 914.001082,337.266984 936.091093,374.572643 C960.627983,416.030662 1017.97883,495.342821 990.895336,568.132824 Z" id="path-1"></path>
    </defs>
    <g id="illustration" stroke="none" stroke-width="1" fill="none" fill-rule="evenodd">
        <path d="M996.895336,622.132824 C983.743972,657.480048 919.504896,686.519739 919.504896,686.519739 C916.005648,687.757796 912.50559,688.982936 909.004722,690.195159 L907.975865,690.549883 C907.939381,690.549883 907.905329,690.576711 907.868845,690.585653 C874.405469,702.157413 840.8748,712.611344 807.276839,721.947446 C803.417613,723.024536 799.559199,724.085728 795.701595,725.131021 C775.270402,730.669488 754.839209,735.788646 734.408016,740.488493 L730.217189,741.448335 C728.293251,741.904409 726.379043,742.342598 724.462403,742.75992 C723.066271,743.058008 721.667707,743.356095 720.269143,743.654183 C714.650565,744.918074 709.010097,746.155138 703.391519,747.305756 C700.341433,747.952606 697.310806,748.599456 694.289909,749.216497 C666.576455,754.852339 638.880027,759.721103 611.200624,763.822788 C608.02406,764.293766 604.847496,764.753815 601.670932,765.202933 C591.977466,766.580098 582.291297,767.858893 572.612425,769.03932 C512.839024,776.372274 453.593428,780 395.1967,780 C308.276568,780 170.208554,762.279208 140.743217,755.750576 C111.277879,749.221945 63.6811346,721.160495 57.5323184,715.347787 C48.9779724,707.263653 41.9656951,698.902296 36.279013,690.326317 C0.0793170359,635.749464 17.5747422,572.465474 33.1170427,516.094134 C44.9209212,473.270874 55.6010842,434.439006 40.7544172,406.445603 C-26.4933954,279.680884 11.895357,161.125497 87.3715894,88.6604089 C200.280686,-19.7450969 382.439366,157.420268 481.007711,194.418897 C616.588136,245.308407 919.504896,-30.1781617 898.796422,252.003453 C892.868944,332.785184 920.001082,391.266984 942.091093,428.572643 C966.627983,470.030662 1023.97883,549.342821 996.895336,622.132824 Z" id="Mask" fill="#F7F8FA" fill-rule="nonzero"></path>
        <g id="Tasks" transform="translate(59.000000, 0.000000)" fill-rule="nonzero">
            <path d="M287.069805,177 L7.85122954,177 C3.48068478,177 0.082,173.582035 0.082,169.187645 L0.082,101.811408 C0.082,97.4179646 3.48068478,94 7.85122954,94 L287.31277,94 C291.683315,94 295.082,97.4179646 295.082,101.811408 L295.082,169.187645 C295.082,173.582035 291.44035,177 287.069805,177 Z" id="Path" fill="#006CF9"></path>
            <path d="M287.069805,83 L7.85122954,83 C3.48068478,83 0.082,79.592068 0.082,75.210576 L0.082,7.7884797 C0.082,3.40793201 3.48068478,0 7.85122954,0 L287.31277,0 C291.683315,0 295.082,3.40793201 295.082,7.7884797 L295.082,74.9678942 C295.082,79.3484419 291.44035,83 287.069805,83 Z" id="Path" fill="#006CF9"></path>
            <path d="M62.1245958,55.2599841 C68.3433182,47.504532 67.0971209,36.1766087 59.3416421,29.9573382 C51.5861633,23.7390113 40.2581265,24.9845639 34.0394042,32.7400159 C27.8206818,40.495468 29.0668791,51.8243349 36.8223579,58.0426618 C44.5778367,64.2609887 55.9058735,63.0154361 62.1245958,55.2599841 Z" id="Path" fill="#FFFFFF"></path>
            <path d="M58.0721384,37.0364077 C58.3210543,37.2766985 53.8270077,41.8375657 48.0835387,47.3595959 C47.3338852,48.0795368 46.3353158,48.7994777 45.5856624,49.5203499 L45.0868619,50 L44.5870929,49.5203499 C40.0920778,45.198842 36.8464851,41.597275 37.095401,41.597275 C37.3452855,41.3579156 40.8417313,44.4789011 45.3367464,48.7994777 L44.3372085,48.7994777 C45.0868619,48.0795368 45.8355468,47.3595959 46.8350848,46.3993643 C53.0773543,40.8773341 57.8222539,36.5567576 58.0721384,37.0364077 Z" id="Path" fill="#006CF9"></path>
            <path d="M182,36 C228.391753,36 266,35.7761966 266,35.5 C266,35.2238034 228.391753,35 182,35 C135.608247,35 98,35.2238034 98,35.5 C98,35.7761966 135.608247,36 182,36 Z" id="Path" fill="#FFFFFF"></path>
            <path d="M146,52 C172.509599,52 194,51.7761966 194,51.5 C194,51.2238034 172.509599,51 146,51 C119.490401,51 98,51.2238034 98,51.5 C98,51.7761966 119.490401,52 146,52 Z" id="Path" fill="#FFFFFF"></path>
            <path d="M62.1245958,149.259984 C68.3433182,141.504532 67.0971209,130.175665 59.3416421,123.957338 C51.5861633,117.739011 40.2581265,118.984564 34.0394042,126.740016 C27.8206818,134.495468 29.0668791,145.823391 36.8223579,152.042662 C44.5778367,158.260989 55.9058735,157.015436 62.1245958,149.259984 Z" id="Path" fill="#FFFFFF"></path>
            <path d="M58.0721384,133.00958 C58.3210543,133.250368 53.8270077,137.820674 48.0835387,143.354132 C47.3338852,144.075562 46.3353158,144.796993 45.5856624,145.519357 L45.0868619,146 L44.5870929,145.519357 C40.0920778,141.188906 36.8464851,137.579886 37.095401,137.579886 C37.3452855,137.340031 40.8417313,140.467475 45.3367464,144.796993 L44.3372085,144.796993 C45.0868619,144.075562 45.8355468,143.354132 46.8350848,142.391913 C53.0773543,137.099243 57.8222539,132.768792 58.0721384,133.00958 Z" id="Path" fill="#006CF9"></path>
            <path d="M182.082,130 C228.473753,130 266.082,129.776341 266.082,129.500323 C266.082,129.224305 228.473753,129 182.082,129 C135.690247,129 98.082,129.224305 98.082,129.500323 C98.082,129.776341 135.690247,130 182.082,130 Z" id="Path" fill="#FFFFFF"></path>
            <path d="M146,147 C172.509599,147 194,146.776197 194,146.5 C194,146.223803 172.509599,146 146,146 C119.490401,146 98,146.223803 98,146.5 C98,146.776197 119.490401,147 146,147 Z" id="Path" fill="#FFFFFF"></path>
            <path d="M287.069805,272 L7.85122954,272 C3.48068478,272 0.082,268.582035 0.082,264.188592 L0.082,196.812355 C0.082,192.417965 3.48068478,189 7.85122954,189 L287.31277,189 C291.683315,189 295.082,192.417965 295.082,196.812355 L295.082,264.188592 C295.082,268.582035 291.44035,272 287.069805,272 Z" id="Path" fill="#006CF9"></path>
            <path d="M62.1245958,244.259984 C68.3433182,236.504532 67.0971209,225.176609 59.3416421,218.957338 C51.5861633,212.739011 40.2581265,213.984564 34.0394042,221.740016 C27.8206818,229.495468 29.0668791,240.824335 36.8223579,247.042662 C44.5778367,253.260989 55.9058735,252.015436 62.1245958,244.259984 Z" id="Path" fill="#FFFFFF"></path>
            <path d="M58.0721384,227.010104 C58.3210543,227.250882 53.8270077,231.821004 48.0835387,237.354238 C47.3338852,238.07564 46.3353158,238.797042 45.5856624,239.518443 L45.0868619,240 L44.5870929,239.518443 C40.0920778,235.1891 36.8464851,231.580225 37.095401,231.580225 C37.3452855,231.34038 40.8417313,234.466765 45.3367464,238.797042 L44.3372085,238.797042 C45.0868619,238.07564 45.8355468,237.354238 46.8350848,236.392058 C53.0773543,230.858824 57.8222539,226.769326 58.0721384,227.010104 Z" id="Path" fill="#006CF9"></path>
            <path d="M182.082,224 C228.473753,224 266.082,223.776197 266.082,223.5 C266.082,223.223803 228.473753,223 182.082,223 C135.690247,223 98.082,223.223803 98.082,223.5 C98.082,223.776197 135.690247,224 182.082,224 Z" id="Path" fill="#FFFFFF"></path>
            <path d="M146,241 C172.509599,241 194,240.776341 194,240.500323 C194,240.223659 172.509599,240 146,240 C119.490401,240 98,240.223659 98,240.500323 C98,240.776341 119.490401,241 146,241 Z" id="Path" fill="#FFFFFF"></path>
        </g>
        <g id="Group-3" transform="translate(261.000000, 80.000000)">
            <path d="M498.613556,241.827067 C495.036262,238.823539 489.830022,238.276865 486.806356,238.550202 C486.806356,236.365625 486.806356,235 486.806356,235 L422.021135,235 C422.021135,235 420.104728,277.601363 452.768829,278.966989 C467.312233,279.512603 475.8296,273.23221 480.492858,264.766181 C482.143098,265.039518 484.889949,265.585132 487.902967,265.585132 C491.203447,265.585132 495.036262,265.039518 498.059927,262.581604 C500.253149,260.943702 503,257.665777 503,251.658721 C502.723186,246.469557 500.529964,243.192692 498.613556,241.827067 Z M494.216466,257.3935 C491.469615,259.578076 486.529542,259.031402 483.239709,258.485788 C485.156117,253.569961 485.98656,248.654134 486.252728,244.558317 C488.456596,244.558317 492.300058,244.558317 494.49328,246.469557 C495.866705,247.561845 496.409687,249.200808 496.409687,251.658721 C496.409687,254.388912 495.589891,256.301211 494.216466,257.3935 Z" id="Shape" fill="#FF5D5D" fill-rule="nonzero"></path>
            <polygon id="Path" fill="#DEE7F5" fill-rule="nonzero" points="247 459 241.818759 685 232 685 232.545839 459.546001"></polygon>
            <polygon id="Path" fill="#FFFFFF" fill-rule="nonzero" points="284 456 331.903776 684 343 684 302.950713 456"></polygon>
            <polygon id="Path" fill="#DEE7F5" fill-rule="nonzero" points="193 458.816567 139.243945 684 128 684 176.818081 458"></polygon>
            <path d="M346.332935,211.076862 C346.332935,211.076862 407.835922,207.532166 401.548856,278.423969 C395.537445,349.315771 391.975128,421.026312 369.021505,445.565213 C346.332935,470.105171 116.444712,470.922852 97.0375033,450.746329 C77.6292342,430.568748 133.939296,431.386429 144.326208,431.386429 C154.986655,431.386429 219.769943,437.385227 240.818363,382.307571 C262.139257,327.502827 256.945271,207.532166 346.332935,211.076862 Z" id="Path" fill="#DEE7F5" fill-rule="nonzero"></path>
            <path d="M350.025413,211 C350.025413,211 396.975896,220.5654 392.614318,269.756914 C388.242153,318.948428 375.961982,404.760303 353.307183,426.623317 C330.652385,448.48633 241.399888,453.405799 193.089059,450.398985 C137.136999,446.847213 101.654714,436.188716 101.654714,436.188716 C101.654714,436.188716 91.5553317,442.747302 94.5576219,447.119692 C97.559912,451.492083 124.85471,468.436687 257.50385,465.703413 C389.883038,462.970138 380.874051,443.294381 386.33661,421.977386 C391.788582,400.661452 403.253604,286.700457 401.887964,261.558151 C399.707175,236.142306 387.151759,215.372391 350.025413,211 Z" id="Path" fill="#FFFFFF" fill-rule="nonzero"></path>
            <path d="M143.788251,670.784401 L143.244199,646.356242 L188.91295,645 L190,680.826702 L187.281848,681.098372 C174.777083,682.183998 123.127976,685.440875 114.429467,683.269623 C105.186907,680.555032 143.788251,670.784401 143.788251,670.784401 Z" id="Path" fill="#132236" fill-rule="nonzero"></path>
            <path d="M141.983047,675.992753 C142.083785,675.900713 141.725227,674.932546 141.182267,673.832728 C140.639307,672.731744 140.117691,671.915035 140.016953,672.007075 C139.916215,672.10028 140.274773,673.067282 140.817733,674.168266 C141.360693,675.269249 141.882309,676.085958 141.983047,675.992753 Z" id="Path" fill="#FFFFFF" fill-rule="nonzero"></path>
            <path d="M145.988962,673.978861 C146.08858,673.842178 145.502785,673.067636 144.68094,672.25133 C143.858012,671.433758 143.11088,670.883226 143.011263,671.021175 C142.910562,671.157859 143.496357,671.931135 144.319285,672.748707 C145.14113,673.565013 145.889345,674.116811 145.988962,673.978861 Z" id="Path" fill="#FFFFFF" fill-rule="nonzero"></path>
            <path d="M145.510244,669.757248 C146.891509,669.708248 148.006442,669.552248 148,669.410248 C147.994581,669.268248 146.869944,669.193248 145.488678,669.242248 C144.108491,669.292248 142.993558,669.447248 143,669.590248 C143.005419,669.732248 144.130056,669.807248 145.510244,669.757248 Z" id="Path" fill="#FFFFFF" fill-rule="nonzero"></path>
            <path d="M149,666.130286 C149,666.130286 148.000194,666.904286 146.5,666.904286 C144.999806,667.161286 144,666.646286 144,666.646286 C144,666.388286 145.25,666.646286 146.5,666.388286 C147.75,666.130286 149,665.873286 149,666.130286 Z" id="Path" fill="#FFFFFF" fill-rule="nonzero"></path>
            <path d="M32.8592895,540.051836 L43.5055448,518 L85,537.601397 L69.7119562,570 L66.9823643,568.911033 C55.244484,564.010156 7.47239099,543.863747 0.920523455,537.873903 C-6.44979812,531.340104 32.8592895,540.051836 32.8592895,540.051836 Z" id="Path" fill="#132236" fill-rule="nonzero"></path>
            <path d="M28.754,542.999741 C28.895,542.98313 28.896,542.073395 28.756,540.969206 C28.616,539.865016 28.388,538.983619 28.246,539.000231 C28.105,539.01782 28.104,539.926577 28.244,541.031744 C28.384,542.135933 28.613,543.01733 28.754,542.999741 Z" id="Path" fill="#FFFFFF" fill-rule="nonzero"></path>
            <path d="M33.9465182,542.996363 C34.1241599,542.930377 33.8448149,541.983784 33.3227383,540.881223 C32.8006616,539.778663 32.2324795,538.937646 32.0534818,539.003632 C31.8758401,539.069618 32.1551851,540.017411 32.6772617,541.119972 C33.2006944,542.222532 33.7688765,543.062349 33.9465182,542.996363 Z" id="Path" fill="#FFFFFF" fill-rule="nonzero"></path>
            <path d="M36.9973875,539.971931 C37.0532905,539.841605 36.2052714,539.302256 35.1014253,538.764912 C33.9985267,538.22857 33.0585994,537.898746 33.0026965,538.028069 C32.9458461,538.158395 33.7948127,538.698747 34.8977112,539.235088 C36.0006098,539.77143 36.9405371,540.101254 36.9973875,539.971931 Z" id="Path" fill="#FFFFFF" fill-rule="nonzero"></path>
            <path d="M40,537.906405 C40,538.144937 38.6844254,537.906405 37.3688508,537.430266 C36.0532762,536.953203 35,536.238532 35,536 C35,536 36.0532762,536.477064 37.3688508,536.953203 C38.9477444,537.668798 40,537.906405 40,537.906405 Z" id="Path" fill="#FFFFFF" fill-rule="nonzero"></path>
            <path d="M336,218.300123 L326.175295,169.085373 C319.082027,128.893204 262.848294,126.158638 262.848294,126.158638 L218.628651,125.338693 C218.628651,125.338693 185.873635,120.964237 165.675819,143.657523 C144.657514,167.171814 119,195.059501 119,195.059501 L138.652586,244.547919 L185.055262,206.269309 C185.055262,206.269309 178.777191,216.386564 178.777191,228.689986 C178.777191,241.813354 192.42485,247.828761 192.42485,247.828761 L196.519888,287.747262 L182.599086,352 L326.71523,346.258261 C323.99438,323.018699 316.35059,303.058919 305.42484,285.560034 L308.156277,218.300123 L336,218.300123 Z" id="Path" fill="#FFB226" fill-rule="nonzero"></path>
            <path d="M274,164 C274,164 274.277957,165.084692 274.833872,166.983693 C275.388709,169.423461 275.944624,172.135718 276.500539,175.661231 C277.889248,183.254077 279.832795,193.017359 282.055376,203.864282 C284.277957,214.982641 285.944624,225.017359 287.333333,232.067333 C287.888171,235.592846 288.444085,238.576539 288.722043,240.745923 C289,242.915308 289,244 289,244 C289,244 288.722043,242.915308 288.166128,241.016307 C287.611291,238.576539 287.055376,235.864282 286.499461,232.338769 C285.110752,224.745923 283.166128,214.982641 280.944624,204.135718 C278.722043,193.017359 277.055376,182.982641 275.666667,175.932667 C275.111829,172.407154 274.555915,169.423461 274.277957,167.254077 C274,165.084692 274,164 274,164 Z" id="Path" fill="#132236" fill-rule="nonzero"></path>
            <path d="M309.497902,216.993384 C324.138555,216.92917 336,216.433442 336,215.885058 C336,215.336674 324.128067,214.943688 309.497902,215.006617 C294.85725,215.069546 282.998951,215.565275 283,216.113658 C283.002098,216.663326 294.867738,217.056313 309.497902,216.993384 Z" id="Path" fill="#132236" fill-rule="nonzero"></path>
            <path d="M342.337827,260.482908 C339.605617,237.111451 335.782641,217 335.782641,217 L284.727373,217 C284.727373,217 291.00722,246.622613 289.642174,253.68877 C288.277128,259.667907 189.43889,263.743968 163.774116,264.015987 C162.135849,262.928967 159.95114,264.830988 158.039652,263.200985 C156.401385,261.569928 154.764176,259.939925 153.671292,257.765885 C152.306246,255.319827 150.667979,252.058767 150.122596,249.883673 C149.576154,247.16665 146.299619,246.622613 145.207794,248.796653 C144.11491,250.971747 145.207794,258.308868 150.122596,265.375025 C155.036338,272.441182 142.204481,268.636085 137.5629,267.549065 C132.92132,266.190027 118.176915,263.200985 116.538648,264.288005 C114.354998,265.918008 115.720044,268.636085 120.361624,269.995124 C125.276426,271.082144 138.927947,275.702242 138.381505,278.148301 C137.5629,280.59436 113.808556,273.800221 113.808556,273.800221 C113.808556,273.800221 108.893754,271.625127 108.07515,274.343204 C106.436883,279.506285 132.101657,284.670421 134.559587,285.213404 C136.197854,285.485422 135.651412,288.203499 133.739924,287.931481 C131.828436,287.388498 109.986638,280.59436 108.348371,286.029459 C106.982266,290.105521 129.644785,290.649558 133.466703,294.453601 C137.289679,298.530716 116.265427,292.279561 115.173602,296.084658 C114.628219,297.443697 123.364938,298.258698 135.924633,299.889755 C147.664666,301.519758 169.234301,301.247739 174.422324,301.247739 C203.363632,302.878796 305.749507,305.052836 327.5966,303.422834 C352.99133,301.247739 343.428594,268.364067 342.337827,260.482908 Z" id="Path" fill="#ECC697" fill-rule="nonzero"></path>
            <path d="M180.053149,219.979684 C179.778936,219.979684 180.601574,217.540906 181.697362,213.475926 C182.245787,211.579566 183.067362,209.140788 183.89,206.431852 C184.437362,205.076859 184.985787,203.721865 185.534212,202.366872 C185.807362,201.554296 186.355787,201.011879 186.355787,200.199303 C186.63,199.656885 186.63,198.84431 186.63,198.031734 C186.63,196.676741 186.081575,195.05159 185.807362,193.425387 C185.534212,192.070394 185.26,190.445243 184.985787,189.090249 C184.437362,186.380263 184.163149,183.941485 183.615787,181.773916 C182.793149,177.709987 182.519999,175 182.793149,175 C183.067362,175 183.615787,177.438778 184.711575,181.502707 C185.26,183.671327 185.807362,186.109054 186.355787,188.81904 C186.63,190.174034 186.904212,191.529027 187.177362,193.154178 C187.451575,194.509172 188,196.135374 188,197.760525 C188,198.573101 188,199.386728 187.725787,200.470512 C187.451575,201.283088 186.904212,202.095663 186.63,202.638081 C186.081575,203.993074 185.534212,205.347017 184.985787,206.70201 C184.163149,209.140788 183.341574,211.579566 182.518937,213.475926 C181.148936,217.812115 180.053149,220.249841 180.053149,219.979684 Z" id="Path" fill="#132236" fill-rule="nonzero"></path>
            <g id="Group" opacity="0.3" transform="translate(275.000000, 177.000000)" fill="#000000" fill-rule="nonzero">
                <path d="M0.395357143,0.0431578947 C2.32928571,27.1757895 3.1575,52.1378947 3.71035714,79.5421053 C7.85357143,79 11.7214286,78.1852632 14.2071429,76.2863158 C15.5882143,64.6189474 6.4725,29.3463158 0.395357143,0.0431578947 Z" id="Path"></path>
            </g>
            <path d="M209.140322,164 C208.9057,164 208.9057,161.000265 209.609568,157.727537 C210.312526,154.45481 211.719353,152 211.953976,152 C212.188599,152.272992 211.484731,154.726744 210.781772,158.000529 C210.078813,161.273256 209.374945,164 209.140322,164 Z" id="Path" fill="#FAFAFA" fill-rule="nonzero"></path>
            <path d="M180,163.951655 C179.721521,164.209255 177.773249,163.437453 175.826056,161.635252 C173.877784,159.834048 172.763869,158.032845 173.042347,158.032845 C173.320826,157.775245 174.99062,159.062246 176.660413,160.86345 C178.608685,162.408052 180,163.694055 180,163.951655 Z" id="Path" fill="#FAFAFA" fill-rule="nonzero"></path>
            <path d="M152.428557,186.838636 C152.428557,186.838636 152.163148,186.558729 152.163148,186 L152.693966,186 C152.959376,187.118543 153.223756,189.915443 152.693966,192.991164 C151.897738,197.185429 150.306311,200.262236 150.041931,199.982329 C149.776521,199.702422 150.83713,196.6267 151.367949,192.711257 C151.897738,189.915443 151.897738,187.39845 152.163148,186 L152.693966,186 C152.693966,186.558729 152.693966,186.838636 152.428557,186.838636 Z" id="Path" fill="#FAFAFA" fill-rule="nonzero"></path>
            <path d="M150.992138,214.869749 C151.160213,214.43107 148.613067,213.014732 145.30362,211.705307 C141.994174,210.396986 139.174855,209.691572 139.007865,210.130251 C138.83979,210.56893 141.385852,211.985268 144.695298,213.294693 C148.004745,214.603014 150.824063,215.308428 150.992138,214.869749 Z" id="Path" fill="#FAFAFA" fill-rule="nonzero"></path>
            <path d="M174.151469,200 C173.898289,200 173.898289,197.505601 174.656849,194.734884 C175.416391,191.963091 176.681313,189.746087 176.934493,190.023481 C177.186692,190.2998 176.681313,192.516804 175.921771,195.288597 C175.16321,197.782996 174.656849,200 174.151469,200 Z" id="Path" fill="#FAFAFA" fill-rule="nonzero"></path>
            <path d="M194.538038,138.964735 C197.023328,138.821079 199.020399,138.271438 198.999843,137.739285 C198.979286,137.205884 196.947268,136.891089 194.461978,137.034745 C191.976688,137.179651 189.978589,137.728043 190.000173,138.261444 C190.02073,138.794846 192.052747,139.10964 194.538038,138.964735 Z" id="Path" fill="#FAFAFA" fill-rule="nonzero"></path>
            <path d="M203.970261,190.970883 C203.702743,191.240621 201.555313,189.62324 200.213559,186.659263 C198.871805,183.69424 198.871805,181 199.140364,181 C199.407882,181 200.213559,183.424502 201.555313,186.119788 C202.628507,188.815073 204.23882,190.701145 203.970261,190.970883 Z" id="Path" fill="#FAFAFA" fill-rule="nonzero"></path>
            <path d="M252.971478,179.026085 C253.234789,179.300105 251.655944,181.490142 249.023855,183.680178 C246.656097,185.870215 244.28834,187.239253 244.025029,186.965233 C243.761718,186.692275 245.603874,184.775196 248.234942,182.58516 C250.6027,180.669143 252.708167,178.753127 252.971478,179.026085 Z" id="Path" fill="#FAFAFA" fill-rule="nonzero"></path>
            <path d="M225.518608,174.694928 C227.709036,173.083679 229.251909,171.465722 228.965858,171.082198 C228.679807,170.698674 226.671821,171.693824 224.481392,173.305072 C222.290964,174.916321 220.748091,176.534278 221.034142,176.917802 C221.321319,177.301326 223.329306,176.306176 225.518608,174.694928 Z" id="Path" fill="#FAFAFA" fill-rule="nonzero"></path>
            <path d="M240.978929,151.957008 C240.70239,152.244288 237.939143,151.091817 235.175897,148.499595 C232.411578,145.906256 230.753416,143.312916 231.029955,143.024519 C231.306494,142.736122 233.241196,145.041064 236.004442,147.347124 C238.767689,149.939346 241.255468,151.668611 240.978929,151.957008 Z" id="Path" fill="#FAFAFA" fill-rule="nonzero"></path>
            <path d="M264.501572,147.644144 C266.692394,146.026864 268.244853,144.426311 267.96805,144.070865 C267.691247,143.714374 265.690324,144.737849 263.498428,146.355129 C261.307606,147.973454 259.755147,149.572961 260.03195,149.929453 C260.308753,150.284899 262.309676,149.262469 264.501572,147.644144 Z" id="Path" fill="#FAFAFA" fill-rule="nonzero"></path>
            <path d="M291.085162,155 C290.76694,154.737853 291.397216,152.380565 292.038593,149.5 C292.67997,146.618419 293.309012,144 293.629701,144 C293.950389,144 294.271078,146.618419 293.629701,149.761131 C292.988324,152.903843 291.717905,155 291.085162,155 Z" id="Path" fill="#FAFAFA" fill-rule="nonzero"></path>
            <path d="M294.971259,180.961363 C295.263944,180.638484 293.288325,178.379359 290.544411,175.915231 C287.800497,173.452128 285.331497,171.715758 285.03045,172.038637 C284.728358,172.361516 286.708158,174.620641 289.452072,177.084769 C292.201213,179.547872 294.668122,181.284242 294.971259,180.961363 Z" id="Path" fill="#FAFAFA" fill-rule="nonzero"></path>
            <path d="M316.290464,165.834069 C317.608687,162.801532 318.312484,160.194499 317.865629,160.010408 C317.429945,159.825215 316.01118,162.133514 314.704128,165.166051 C313.397077,168.197485 312.69328,170.804518 313.128964,170.989711 C313.564648,171.173802 314.983413,168.865503 316.290464,165.834069 Z" id="Path" fill="#FAFAFA" fill-rule="nonzero"></path>
            <path d="M318.244806,196.394102 C320.143347,193.086609 321.335454,190.230426 320.916009,190.013246 C320.507602,189.795007 318.642175,192.299464 316.754673,195.605898 C314.86717,198.913391 313.664025,201.769574 314.08347,201.986754 C314.491877,202.204993 316.357304,199.700536 318.244806,196.394102 Z" id="Path" fill="#FAFAFA" fill-rule="nonzero"></path>
            <path d="M295.943735,206.973444 C296.286882,206.692415 295.025312,204.236705 293.117818,201.488989 C291.220416,198.74237 289.400728,196.74443 289.056571,197.026556 C288.712415,197.307585 289.973985,199.763295 291.876433,202.509914 C293.773834,205.25763 295.600588,207.255571 295.943735,206.973444 Z" id="Path" fill="#FAFAFA" fill-rule="nonzero"></path>
            <path d="M262.035713,220 C261.751518,219.73596 263.171395,216.306512 266.01225,212.348984 C268.852004,208.392479 271.691758,205.754127 271.975954,206.018167 C272.260149,206.282207 269.987685,209.183576 267.147931,213.141104 C264.308177,216.833568 262.319909,220 262.035713,220 Z" id="Path" fill="#FAFAFA" fill-rule="nonzero"></path>
            <path d="M236.911208,217.990442 C237.341885,217.79656 236.164253,214.73384 234.280041,211.149609 C232.39583,207.565377 230.519469,204.815772 230.088792,205.009655 C229.658115,205.2025 230.835747,208.26522 232.719959,211.850488 C234.603049,215.43472 236.480531,218.183288 236.911208,217.990442 Z" id="Path" fill="#FAFAFA" fill-rule="nonzero"></path>
            <path d="M199.52348,217.124044 C202.823953,214.107386 205.266201,211.381555 204.976704,211.035997 C204.688233,210.691512 201.777862,212.858226 198.477389,215.874883 C195.176916,218.892614 192.734668,221.618445 193.023139,221.964003 C193.312636,222.308488 196.22198,220.141774 199.52348,217.124044 Z" id="Path" fill="#FAFAFA" fill-rule="nonzero"></path>
            <path d="M216.973288,244.978613 C216.692275,245.259688 214.445255,242.732185 211.356284,239.643621 C208.267313,236.553966 205.740369,234.307539 206.021383,234.026464 C206.302396,233.746477 209.391367,235.711829 212.480338,238.800393 C215.288296,241.608972 217.254302,244.697537 216.973288,244.978613 Z" id="Path" fill="#FAFAFA" fill-rule="nonzero"></path>
            <path d="M239.06096,245.983138 C238.804684,245.983138 239.316242,242.79367 241.365454,239.338155 C243.414666,235.882641 245.719161,233.756329 245.975436,234.022376 C246.231712,234.288423 244.438776,236.946828 242.645839,240.136296 C240.852903,243.325763 239.572518,246.249184 239.06096,245.983138 Z" id="Path" fill="#FAFAFA" fill-rule="nonzero"></path>
            <path d="M269.977044,249.960449 C270.276094,249.599282 267.618481,246.8619 264.0408,243.847036 C260.46421,240.831072 257.320914,238.678384 257.022956,239.039551 C256.723906,239.400718 259.381519,242.1381 262.958109,245.152964 C266.53579,248.168928 269.677994,250.321616 269.977044,249.960449 Z" id="Path" fill="#FAFAFA" fill-rule="nonzero"></path>
            <path d="M266.977442,167.960865 C266.708397,168.21802 264.018992,167.190397 261.33063,165.392306 C258.373223,163.337061 256.759997,161.281815 257.029042,161.02466 C257.298086,160.767505 259.448359,162.565596 262.137764,164.364683 C265.095172,166.162774 267.245444,167.447552 266.977442,167.960865 Z" id="Path" fill="#FAFAFA" fill-rule="nonzero"></path>
            <path d="M222.979892,308.069479 C223.243221,308.357217 220.875308,309.793675 218.506374,311.518986 C216.138461,313.530919 214.296184,315.256231 214.032856,314.968493 C213.770548,314.680755 215.086169,312.381084 217.71741,310.36915 C220.348651,308.357217 222.979892,307.781741 222.979892,308.069479 Z" id="Path" fill="#FAFAFA" fill-rule="nonzero"></path>
            <path d="M255.866906,320.993584 C256.310414,320.840764 255.609206,318.034244 254.303014,314.723831 C252.995716,311.413418 251.576712,308.853682 251.133204,309.006502 C250.689696,309.158289 251.389797,311.965842 252.697095,315.276255 C254.004393,318.585635 255.423398,321.145371 255.866906,320.993584 Z" id="Path" fill="#FAFAFA" fill-rule="nonzero"></path>
            <path d="M285.107868,315.05711 C287.570295,312.590473 289.294212,310.342676 288.95813,310.035259 C288.622048,309.726799 286.354309,311.476475 283.891882,313.943111 C281.430542,316.408706 279.706625,318.657545 280.04162,318.964963 C280.377702,319.272381 282.646529,317.522705 285.107868,315.05711 Z" id="Path" fill="#FAFAFA" fill-rule="nonzero"></path>
            <path d="M313.975287,327.968298 C313.69495,328.254307 311.47382,326.533802 308.131343,325.673549 C304.799649,324.812184 302.017846,325.673549 302.017846,325.386427 C301.737509,325.099306 304.799649,323.377688 308.41168,324.239053 C312.304048,325.099306 314.244841,327.968298 313.975287,327.968298 Z" id="Path" fill="#FAFAFA" fill-rule="nonzero"></path>
            <path d="M327.027919,340.077858 C327.027919,340.077858 138.388937,300.530432 120.370832,309.257848 C102.080608,317.986322 18,525.816909 18,525.816909 L85.7015712,555 L158.590349,378.262419 C158.590349,378.262419 290.444294,426.53832 313.644312,421.628619 C336.578563,416.718919 327.027919,340.077858 327.027919,340.077858 Z" id="Path" fill="#000957" fill-rule="nonzero"></path>
            <path d="M243.32938,351 C240.328154,352.092124 131.463864,396.871334 123.824283,411.342244 C116.184702,425.814213 135.010094,665 135.010094,665 L196.945833,665 L193.126572,452.298489 L314,421.717953 L243.32938,351 Z" id="Path" fill="#000957" fill-rule="nonzero"></path>
            <path d="M315,422 C315,422 314.448458,422 313.090815,421.729524 C311.722566,421.457995 310.078545,421.186467 307.893589,420.914938 C303.51307,420.101405 297.223366,418.744815 289.293884,417.117749 C273.707509,413.862564 252.10402,408.979261 228.586042,402.197363 C216.826523,398.942178 205.615364,395.415465 195.770333,391.888751 C185.651652,388.362038 176.901221,385.106853 169.517978,381.851668 C165.689001,380.495078 162.408385,378.86696 159.672947,377.511422 C156.66492,376.154832 154.204192,375.06977 152.289704,373.984709 C150.375216,373.170123 148.734377,372.35659 147.640838,371.814586 C146.5473,371.271529 146,371 146,371 C146,371 146.5473,371.271529 147.640838,371.543057 C148.734377,372.085062 150.375216,372.628119 152.289704,373.71318 C154.204192,374.526713 156.93857,375.611775 159.672947,376.968365 C162.680974,378.324955 165.962651,379.681545 169.791628,381.037083 C177.174871,384.021792 186.198952,387.276976 196.043983,390.80369 C206.161603,394.058875 217.100173,397.585588 228.859692,401.112301 C252.376609,407.894199 273.980099,412.777503 289.567534,416.303163 C297.223366,417.931282 303.51307,419.559401 308.158754,420.372934 C310.354316,420.914938 311.98773,421.186467 313.090815,421.457995 C314.448458,421.729524 315,422 315,422 Z" id="Path" fill="#132236" fill-rule="nonzero"></path>
            <path d="M123.659462,466 C123.659462,466 123.384349,464.634475 123.109235,462.450059 C122.834122,459.720069 122.559009,456.443446 122.009848,452.620188 C121.734735,448.251356 121.184508,443.335891 120.635347,438.147109 C120.08512,432.686069 119.534894,426.406139 120.635347,420.125149 C121.734735,413.571901 125.583124,408.383119 129.707692,404.560921 C133.831195,400.737663 138.504924,398.279931 142.079266,396.642149 C145.927655,395.003307 149.226883,393.911099 151.426724,393.092208 C153.625499,392.272257 155,392 155,392 C155,392.273317 150.052224,393.911099 142.628426,397.46104 C138.780037,399.372139 134.656535,401.829871 130.531966,405.379812 C126.683577,408.929752 123.109235,414.117475 122.009848,420.398465 C120.909394,426.406139 121.459621,432.686069 122.009848,438.147109 C122.283895,443.609208 122.834122,448.523614 123.109235,452.620188 C123.384349,456.443446 123.659462,459.992327 123.659462,462.450059 C123.933509,464.907792 123.933509,466 123.659462,466 Z" id="Path" fill="#132236" fill-rule="nonzero"></path>
            <path d="M192.992103,451.906298 C193.180405,451.463893 189.978184,449.579991 185.841024,447.699483 C181.702769,445.817844 178.196201,444.651296 178.007899,445.093702 C177.819598,445.536107 181.020724,447.420009 185.158978,449.300517 C189.296138,451.182156 192.803802,452.348704 192.992103,451.906298 Z" id="Path" fill="#132236" fill-rule="nonzero"></path>
            <path d="M183.123466,439.015155 C183.409417,438.735664 185.408856,442.3658 188.267255,446.274343 C191.124547,450.18397 194.267788,452.697224 193.981838,452.976715 C193.695887,453.255123 190.266694,451.02136 187.123452,447.112817 C183.98021,443.20319 182.551565,439.293563 183.123466,439.015155 Z" id="Path" fill="#132236" fill-rule="nonzero"></path>
            <polygon id="Path" fill="#000000" fill-rule="nonzero" opacity="0.3" points="192 307.694897 321 318 315.518549 303.626512 193.3693 302"></polygon>
            <polygon id="Path" fill="#FFFFFF" fill-rule="nonzero" points="4 160 46.033128 283 236 283 234.635419 276.713842 157.939384 274.253673 122.457093 160"></polygon>
            <path d="M87.5940847,217.593085 C88.9581794,222.629698 86.774993,227.665226 82.6827089,228.784353 C78.8623971,229.90348 74.4970825,226.546099 73.4060184,221.509486 C72.0419237,216.473958 74.2240519,211.437345 78.3173942,210.318218 C82.1366477,208.919038 86.2289318,212.276418 87.5940847,217.593085 Z" id="Path" fill="#132236" fill-rule="nonzero"></path>
            <path d="M270.066609,89.1809306 C271.698205,83.5047022 274.145071,78.9096101 277.95248,74.3145181 L277.680372,74.854562 C280.671455,68.0971971 288.013109,63.5021051 295.624762,64.0431976 C302.965362,64.3137439 310.04229,69.7194261 312.214939,76.7473373 C314.387588,83.7752484 311.940721,91.8832474 306.234882,96.4783395 C308.40753,95.9382956 310.580179,97.8300222 310.854397,99.992295 C311.402833,102.154568 310.580179,104.316841 309.219637,105.93907 C304.87434,112.156391 294.812656,114.048117 288.557326,109.453025 C283.662538,112.696435 276.320884,110.804708 272.513475,106.209616 C268.707121,101.614524 268.162905,94.8571591 270.066609,89.1809306 Z" id="Path" fill="#291515" fill-rule="nonzero"></path>
            <path d="M281,27.1416711 C278.8067,20.8683471 268.111436,15.1409896 262.351629,11.8683651 C253.576301,6.95889918 245.348765,7.77784888 240.412244,12.4143315 C231.362487,5.05013271 219.570573,-2.31300803 208.052024,0.686633293 C196.534538,3.68627462 187.210352,15.1409896 189.403653,26.5957046 C190.501367,33.413937 195.436824,39.4142777 195.163459,46.23251 C194.889031,50.8689927 192.420238,55.2324921 190.501367,59.3240664 C188.581431,63.6875658 186.935924,68.5970317 188.855859,72.9605311 C190.501367,77.0510472 194.614602,79.5057802 196.808966,83.3243712 C198.727838,86.3240125 199.002267,90.1426036 200.09998,93.4152281 C204.487645,105.960818 219.296145,112.77905 232.460201,110.597301 C245.623194,108.415551 256.592886,98.5966192 262.626058,87.1419042 C268.933657,75.415264 270.853593,62.0507245 271.675815,48.9602262" id="Path" fill="#522928" fill-rule="nonzero"></path>
            <path d="M271,35.4196311 C268.813309,70.7409176 264.714455,106.882246 268.267431,139.465102 C267.447024,151.511858 256.242218,160.000141 243.398718,158.904982 C230.280689,157.809822 217.709599,146.584171 221.262575,135.084464 C224.542082,124.679917 224.268613,110.44178 222.628859,109.072565 C222.628859,109.072565 206.504793,105.240038 204.319161,83.8828325 C203.226345,72.9312367 205.138508,54.8595103 207.05173,40.6224358 C208.691484,28.5746181 219.89629,20.3603902 231.920443,22.2777161" id="Path" fill="#ECC697" fill-rule="nonzero"></path>
            <path d="M212.038176,56.1116875 C211.741764,57.4067323 213.222676,58.7017771 214.703588,58.9599823 C216.480912,59.2191922 217.66656,58.1833573 217.961824,56.8883125 C218.258236,55.5942724 216.777324,54.2992276 215.296412,54.0400177 C213.519088,53.7808078 212.038176,54.8166427 212.038176,56.1116875 Z" id="Path" fill="#291515" fill-rule="nonzero"></path>
            <path d="M210,53.4186729 C210.272357,53.6597897 212.458632,52.4513914 215.464099,52.6925081 C218.469565,52.9345631 220.382424,54.3859545 220.929257,53.9018446 C221.201614,53.6597897 220.65584,53.176618 219.83559,52.4513914 C219.016399,51.7252266 217.376957,51.2420549 215.464099,51 C213.55124,51 211.911799,51.4841099 211.092608,51.9672815 C210.272357,52.6925081 210,53.176618 210,53.4186729 Z" id="Path" fill="#291515" fill-rule="nonzero"></path>
            <path d="M240.037896,59.1113826 C239.742676,60.4062404 241.223372,61.7010982 242.704068,61.9602706 C244.481133,62.2184386 245.66546,61.1827532 245.961829,59.8878955 C246.258198,58.5940422 244.777502,57.2991844 243.296806,57.040012 C241.519741,56.7808395 240.334265,57.8165248 240.037896,59.1113826 Z" id="Path" fill="#291515" fill-rule="nonzero"></path>
            <path d="M239,55.4177347 C239.272725,55.6597897 241.452415,54.4504532 244.450281,54.6925081 C247.448147,54.9345631 249.356169,56.3859545 249.90162,55.9018446 C250.174345,55.6597897 249.90162,55.176618 248.811775,54.4504532 C247.993598,53.7252266 246.358302,53.2420549 244.450281,53 C242.543317,53 240.908021,53.4831717 240.089845,53.9672815 C239.272725,54.6925081 239,55.176618 239,55.4177347 Z" id="Path" fill="#291515" fill-rule="nonzero"></path>
            <path d="M226.03586,77 C226.03586,76.727114 224.161068,76.4552856 221.483388,75.9095135 C220.679461,75.9095135 220.144548,75.6366275 219.876573,75.0919131 C219.608597,74.546141 220.144548,73.7285405 220.411485,72.9109401 C221.215413,71.2746815 222.018301,69.3665945 223.090204,67.4574499 C226.570773,59.5511584 229.249491,53.0082394 228.981516,53.0082394 C228.71354,52.7353534 225.499908,59.2793301 222.018301,66.9127355 C221.215413,68.8208225 220.411485,70.7299671 219.608597,72.365168 C219.340621,73.1827684 218.805708,74.0014266 219.072645,75.3637414 C219.340621,75.9095135 219.876573,76.4552856 220.144548,76.4552856 C220.679461,76.727114 220.947437,76.727114 221.483388,76.727114 C224.161068,77 226.03586,77 226.03586,77 Z" id="Path" fill="#291515" fill-rule="nonzero"></path>
            <path d="M223,109.636394 C223,109.636394 237.363867,111.514845 252,104 C252,104 245.223837,118.761043 224.083808,115.540395 L223,109.636394 Z" id="Path" fill="#DC9B5D" fill-rule="nonzero"></path>
            <path d="M239,44.6440497 C239.26412,45.3844364 242.167398,45.1373216 245.334796,45.8777083 C248.76529,46.371938 251.405471,47.3594396 251.932688,46.8652099 C252.196808,46.6190529 251.668568,45.8777083 250.613109,45.1373216 C249.557651,44.3969349 247.973953,43.6565481 245.862013,43.1623184 C243.751097,42.9152036 241.903277,42.9152036 240.847819,43.4094333 C239.528241,43.9027052 239,44.3969349 239,44.6440497 Z" id="Path" fill="#291515" fill-rule="nonzero"></path>
            <path d="M211.072653,45.4324154 C211.617834,46.1617627 213.528616,45.6758457 215.984579,45.6758457 C218.4416,45.6758457 220.352382,46.4051929 220.897563,45.6758457 C221.170683,45.4324154 220.897563,44.7030682 220.079262,44.2162077 C219.259902,43.4868605 217.89536,43 215.984579,43 C214.347976,43 212.710314,43.4868605 211.890954,43.9727775 C211.345773,44.459638 210.799533,45.1889852 211.072653,45.4324154 Z" id="Path" fill="#291515" fill-rule="nonzero"></path>
            <path d="M231.370987,83 C229.072382,83 227.636172,83.5300711 225.625033,84.8567928 C225.051217,85.122343 224.476287,85.6534434 224.188823,86.1835145 C223.901358,86.9791358 223.901358,87.7757864 224.476287,88.5714077 C225.337568,90.1636796 227.636172,91.2248511 229.647312,90.9593009 C231.657338,90.6937507 233.668477,89.367029 233.955942,87.5102362 C234.243407,85.6534434 233.094662,83.7956213 231.370987,83 Z" id="Path" fill="#DC9B5D" fill-rule="nonzero"></path>
            <path d="M223,87.4809114 C223,87.7409597 223.797107,88 224.861291,88 C226.19049,88 227.785734,87.4809114 229.380979,86.7007666 C230.976224,85.9216297 232.305423,84.6223962 233.10253,83.8432593 C233.900668,82.8040742 234.165683,82.2849856 233.900668,82.0249373 C233.634622,81.764889 231.507285,83.5832111 228.582841,85.4025411 C226.987596,86.1816779 225.658398,86.7007666 224.595245,87.2208631 C223.797107,86.9608148 223,87.2208631 223,87.4809114 Z" id="Path" fill="#291515" fill-rule="nonzero"></path>
            <path d="M237.999354,69 C238.552683,69 239,68.5526826 239,67.9993536 C239,67.4473174 238.552683,67 237.999354,67 C237.447317,67 237,67.4473174 237,67.9993536 C237,68.5526826 237.447317,69 237.999354,69 Z" id="Path" fill="#DC9B5D" fill-rule="nonzero"></path>
            <path d="M216.000646,65 C216.552683,65 217,64.5526826 217,64.0006464 C217,63.4473174 216.552683,63 216.000646,63 C215.44861,63 215,63.4473174 215,64.0006464 C215,64.5526826 215.44861,65 216.000646,65 Z" id="Path" fill="#DC9B5D" fill-rule="nonzero"></path>
            <path d="M211.000646,68 C211.552683,68 212,67.5523933 212,67 C212,66.4476067 211.552683,66 211.000646,66 C210.447317,66 210,66.4476067 210,67 C210,67.5523933 210.447317,68 211.000646,68 Z" id="Path" fill="#DC9B5D" fill-rule="nonzero"></path>
            <path d="M210.000646,64 C210.552683,64 211,63.5523933 211,63 C211,62.4476067 210.552683,62 210.000646,62 C209.447317,62 209,62.4476067 209,63 C209,63.5523933 209.447317,64 210.000646,64 Z" id="Path" fill="#DC9B5D" fill-rule="nonzero"></path>
            <path d="M242.000646,73 C242.552683,73 243,72.5526826 243,72.0006464 C243,71.4473174 242.552683,71 242.000646,71 C241.44861,71 241,71.4473174 241,72.0006464 C241,72.5526826 241.44861,73 242.000646,73 Z" id="Path" fill="#DC9B5D" fill-rule="nonzero"></path>
            <path d="M243.999354,70 C244.55139,70 245,69.5513898 245,68.9993536 C245,68.4473174 244.55139,68 243.999354,68 C243.447317,68 243,68.4473174 243,68.9993536 C243,69.5513898 243.447317,70 243.999354,70 Z" id="Path" fill="#DC9B5D" fill-rule="nonzero"></path>
            <path d="M230,59.548833 C230,59.548833 230,58.4517122 230.554839,56.2574707 C231.108602,54.3367112 232.494624,51.3198951 235.545161,48.8511074 C237.207527,47.7539866 239.148387,46.6568658 241.366667,46.3823196 C243.583871,46.1077734 246.07957,46.1077734 248.574194,46.931412 C249.683871,47.4794404 251.069892,48.0285328 251.901075,48.8511074 C253.009677,49.6736819 253.841935,50.4973206 254.673118,51.5944414 C256.336559,53.7886829 257.168817,56.5309528 257.446237,59.548833 C257.446237,62.5656491 256.613978,65.3089831 254.673118,67.5032246 C253.841935,68.6003454 253.009677,69.6974662 251.901075,70.2454945 C250.792473,71.0691332 249.683871,71.6171615 248.574194,72.166254 C246.07957,72.9888285 243.583871,73.2633747 241.366667,72.7142823 C239.148387,72.4408002 237.207527,71.3426153 235.545161,70.2454945 C232.494624,68.051253 231.108602,65.0344369 230.554839,62.8401953 C230,60.6459538 230.277419,59.548833 230,59.548833 C230,59.8223151 230,60.0968613 230,60.3714075 C230,60.6459538 230,60.9205 230,61.4685283 C230,62.0176208 230,62.2911029 230.277419,62.8401953 C230.554839,63.9373161 231.108602,65.0344369 231.663441,66.4061039 C232.494624,67.7777709 233.604301,69.1483737 235.267742,70.2454945 C236.931183,71.3426153 238.870968,72.4408002 241.089247,72.7142823 C243.307527,72.9888285 246.07957,72.9888285 248.574194,72.166254 C249.960215,71.6171615 251.069892,71.0691332 252.178495,70.2454945 C253.287097,69.42292 254.396774,68.6003454 255.227957,67.2286784 C256.891398,65.0344369 258,62.0176208 258,58.9997405 C258,55.9829245 256.891398,52.9650442 255.227957,50.7708027 C254.396774,49.6736819 253.287097,48.5765611 252.178495,47.7539866 C251.069892,46.931412 249.960215,46.3823196 248.574194,45.8342913 C246.07957,45.0106526 243.583871,44.7371705 241.089247,45.2851988 C238.870968,45.8342913 236.653763,46.6568658 235.267742,47.7539866 C233.604301,48.8511074 232.494624,50.2227744 231.663441,51.5944414 C230.832258,52.9650442 230.277419,54.062165 230.277419,55.1603499 C230,55.7083782 230,56.2574707 230,56.5309528 C230,57.0800452 230,57.3545915 230,57.6280735 C230,58.9997405 230,58.9997405 230,59.548833 Z" id="Path" fill="#FFFFFF" fill-rule="nonzero"></path>
            <path d="M225,55 C225,55 226.304216,54.3324709 228.130523,54.6662354 C229.955818,55 231,56 231,56 C231,56 230.738954,55.6662354 230.216863,55 C229.695784,54.6662354 228.912648,54 228.130523,54 C227.086341,54 226.304216,54 225.782125,54.3324709 C225.261046,54.6662354 225,55 225,55 Z" id="Path" fill="#FFFFFF" fill-rule="nonzero"></path>
            <path d="M233.363421,19.5894687 C235.272634,36.5934917 247.817379,51.9525475 264.179492,56.8895769 C258.998703,64.5685728 262.271337,78.8306292 261.998441,90.8976228 C261.998441,102.142133 261.998441,105.159679 269.088444,110.919192 C275.08792,112.289643 278.63345,95.8346522 282.99661,91.4466545 C287.35977,86.784141 291.722929,81.2980799 291.447918,74.7160834 C291.172907,71.699601 290.08767,68.9565705 290.08767,65.9400881 C289.814774,62.6490898 290.9053,59.3570276 291.447918,56.0660293 C294.176876,41.5305211 286.54214,26.1714652 273.997395,18.4924693 C261.45265,10.8134734 244.544745,11.3614411 232,19.041501" id="Path" fill="#522928" fill-rule="nonzero"></path>
            <path d="M290.099236,64 C290.099236,64 290.372483,63.7286105 290.646794,63.4561649 C290.921105,62.9112738 291.46441,62.3674388 291.740847,61.2787126 C292.293721,59.3726498 292.017284,56.3789169 290.372483,53.1127385 C289.550614,51.4791212 288.454435,49.84656 286.809634,48.4853883 C285.439144,46.8517711 283.520032,45.4916554 281.60092,44.1304837 C279.681809,42.769312 277.48945,41.6805858 275.021717,40.8643052 C272.555047,40.0469686 270.088377,39.5031335 267.346334,38.6868529 C264.605353,38.1419618 262.138683,37.3256812 259.67095,36.5094006 C257.204281,35.692064 255.010858,34.6033378 252.818499,33.5146117 C248.705965,31.3371594 245.143116,28.8872615 242.675383,26.4373637 C239.934403,23.9885218 238.015291,21.8100135 236.919112,20.4498978 C236.37049,19.6325612 235.822932,19.0887262 235.548621,18.5438351 C235.274311,18 235,18 235,18 C235,18 235,18.2713895 235.548621,18.5438351 C235.822932,19.0887262 236.37049,19.6325612 236.919112,20.4498978 C238.015291,22.0824591 239.934403,24.2599114 242.675383,26.7098092 C245.416364,29.1597071 248.705965,31.6096049 252.818499,34.0595028 C255.010858,35.1482289 257.204281,36.2369551 259.67095,37.0532357 C262.138683,37.8695163 264.605353,38.6868529 267.346334,39.230688 C270.088377,39.7755791 272.555047,40.5918597 275.021717,41.4081403 C277.48945,42.2254769 279.681809,43.3142031 281.60092,44.6743188 C283.520032,46.0354905 285.164833,47.3966622 286.809634,49.0302794 C288.180124,50.3903951 289.550614,52.0240123 290.099236,53.6576295 C291.740847,56.923808 292.017284,59.6450954 291.46441,61.5511581 C290.921105,63.1837194 290.099236,64 290.099236,64 Z" id="Path" fill="#291515" fill-rule="nonzero"></path>
            <path d="M235,18 C235,18 235.272484,18.2711247 235.544968,18.5433044 C235.817452,18.8154841 236.361364,19.3598435 236.906331,19.9031479 C237.995211,21.2629913 239.901542,22.8939595 242.351785,24.7981623 C244.803085,26.7013102 247.798296,28.8766377 251.609902,30.2364812 C253.516234,31.0519653 255.695049,31.5963247 257.872808,31.8685043 C260.051623,32.4118087 262.230439,32.6839884 264.680682,32.9561681 C269.30974,33.7716522 273.938799,34.3149566 277.750405,35.6748001 C281.563068,37.0346435 284.830763,38.9377914 287.281006,40.8419942 C289.732305,42.7451421 291.088388,44.9204696 291.912177,46.5524928 C292.186773,47.3679769 292.450808,47.9112813 292.725404,48.4556406 C293,49 293,49 293,49 C293,49 293,48.7278203 292.725404,48.4556406 C292.725404,47.9112813 292.450808,47.3679769 291.912177,46.5524928 C291.088388,44.9204696 289.732305,42.7451421 287.55349,40.8419942 C285.103247,38.6666667 281.835552,36.7624638 278.022889,35.4026204 C274.211282,34.0438319 269.582224,33.2272928 264.953166,32.6839884 C262.501866,32.4118087 260.324107,31.8685043 258.145292,31.5963247 C255.967533,31.0519653 253.788718,30.7808406 251.882386,29.9643015 C248.07078,28.6044581 245.075569,26.4291305 242.624269,24.5259826 C240.174026,22.6228348 238.267695,20.9908116 237.178815,19.6309682 C236.633847,19.0876638 236.08888,18.5433044 235.817452,18.2721797 C235.272484,18 235,18 235,18 Z" id="Path" fill="#291515" fill-rule="nonzero"></path>
            <path d="M211,0 C211,0 212.909379,0.271669253 215.63646,0.815007759 C216.454161,1.08562403 217,1.35729328 217.817701,1.62896254 C218.63646,1.90063179 219.454161,2.17124806 220.27292,2.71458657 C221.909379,3.52854134 223.817701,4.61416537 225.72708,5.97145866 C227.36354,7.32875194 229,8.95771448 230.090621,10.3139548 C230.63646,11.1289625 231.182299,11.6712481 231.72708,12.4852028 C232.27292,13.3002106 232.545839,13.8424961 233.090621,14.6575039 C234.455219,17.0993682 235,19 235,19 C235,19 235,18.4566615 234.72708,17.6427067 C234.72708,17.3710375 234.455219,16.8287519 234.182299,16.2854134 C233.909379,15.7431279 233.63646,15.1997894 233.36354,14.3858346 C233.090621,13.8424961 232.545839,13.0285413 232.27292,12.2145866 C231.72708,11.3995788 231.182299,10.8572933 230.63646,10.0433385 C229.27292,8.41437597 227.909379,7.05708269 226,5.42917313 C224.090621,4.07187985 222.454161,2.98625582 220.545839,2.17124806 C219.72708,1.90063179 218.909379,1.35729328 217.817701,1.08562403 C217,0.815007759 216.181241,0.543338506 215.36354,0.543338506 C214.544781,0.271669253 214,0.271669253 213.454161,0.271669253 C212.909379,0.271669253 212.36354,0 211.817701,0 C211.544781,0 211,0 211,0 Z" id="Path" fill="#291515" fill-rule="nonzero"></path>
            <path d="M195.364488,81 C195.364488,81 195.364488,80.7271739 195.364488,81 C195.091575,80.7271739 195.091575,80.4543477 194.818663,80.182579 C194.54575,79.6369268 193.72807,79.0923319 193.182244,78.2738535 C192.636419,77.4564325 191.818738,76.0933593 191.272913,74.730286 C191,73.9128651 191,73.0954441 191,72.2780232 C191,71.4595447 191.545825,70.3692976 192.091651,69.5518767 C193.182244,67.9159773 194.818663,66.2811354 196.182168,64.3724098 C197.818587,62.4647418 199.182093,60.2842475 200.272686,57.8309272 C201.364337,55.3776068 202.182017,52.6525178 202.727843,49.6535452 C203.000756,46.65563 203.000756,43.6577148 203.000756,40.6587422 C203.000756,37.660827 203.000756,34.3900857 203.818436,31.6639392 C204.637174,28.9377927 206.00068,26.4855298 207.910011,24.3039782 C209.818285,22.3963101 211.727616,20.7614682 214.181715,19.9429897 C216.363959,18.8527426 218.546203,18.5799165 220.727389,18.5799165 C224.818965,18.3081478 228.090744,19.6712211 230.000076,20.488642 C231.091726,21.0332369 231.636494,21.5788891 232.18232,21.8517153 C232.455232,22.123484 232.727087,22.123484 232.727087,22.123484 L233,22.123484 C233,22.123484 232.18232,21.306063 230.000076,20.2158159 C228.090744,19.1255688 224.818965,17.7624955 220.454477,18.0353217 C218.273291,18.0353217 216.091046,18.5799165 213.90986,19.3983949 C211.727616,20.488642 209.545372,21.8517153 207.637099,23.7593833 C205.727767,25.6670514 204.364261,28.3931979 203.545523,31.1193444 C202.727843,34.1172596 202.727843,37.1151747 202.727843,40.1141474 C202.727843,43.1120626 203.000756,46.3828039 202.45493,49.1089504 C202.182017,52.1068655 201.364337,54.833012 200.272686,57.2863324 C199.182093,59.7396527 197.818587,61.9201469 196.455081,63.827815 C195.091575,65.7354831 193.182244,67.3713825 192.364564,69.0062244 C191.818738,69.8247028 191.545825,70.9149499 191.272913,71.7323709 C191.272913,72.5497918 191.272913,73.6400389 191.545825,74.4585174 C192.091651,76.0933593 192.909331,77.1836064 193.455157,78.0020848 C194.272837,78.8195058 194.818663,79.6369268 195.091575,79.9097529 C195.091575,80.4543477 195.091575,80.7271739 195.364488,81 Z" id="Path" fill="#291515" fill-rule="nonzero"></path>
            <path d="M198,55.5485598 C198,55.5485598 198,54.4514402 198.554817,52.2572008 C199.109635,50.3375074 200.495603,47.3196302 203.544948,44.8508449 C205.208325,43.7537252 207.148036,42.6566055 209.36623,42.3820596 C211.584425,42.1085778 214.078952,42.1085778 216.57348,42.9311515 C217.683115,43.4791793 219.069083,44.0282712 219.900234,44.8508449 C221.009869,45.6744828 221.84102,46.4970565 222.673246,47.5941762 C224.336623,49.7884155 225.167774,52.5317468 225.445183,55.5485598 C225.445183,58.5653729 224.612956,61.3087042 222.673246,63.5029435 C221.84102,64.6000632 221.009869,65.6971829 219.900234,66.2462748 C218.791675,67.0688485 217.683115,67.6168763 216.57348,68.1659682 C214.078952,68.9885419 211.584425,69.2630879 209.36623,68.7150601 C207.148036,68.4405141 205.208325,67.3433945 203.544948,66.2462748 C200.495603,64.0520354 199.109635,61.0341582 198.554817,58.8399189 C198,56.6456795 198.277409,55.5485598 198,55.5485598 C198,55.8231058 198,56.0976517 198,56.3711336 C198,56.6456795 198,56.9202255 198,57.4682532 C198,58.0173451 198,58.2918911 198.277409,58.8399189 C198.554817,59.9370385 199.109635,61.0341582 199.663377,62.4058238 C200.495603,63.7774895 201.604163,65.1491551 203.26754,66.2462748 C204.930917,67.3433945 206.871702,68.4405141 209.088821,68.7150601 C211.307016,68.9885419 214.078952,68.9885419 216.57348,68.1659682 C217.960524,67.6168763 219.069083,67.0688485 220.177643,66.2462748 C221.286203,65.4226369 222.395837,64.6000632 223.226988,63.2283976 C224.890365,61.0341582 226,58.0173451 226,54.9994679 C226,51.9826549 224.890365,48.9658418 223.226988,46.7716024 C222.395837,45.6744828 221.286203,44.5762989 220.177643,43.7537252 C219.069083,42.9311515 217.960524,42.3820596 216.57348,41.8340318 C214.078952,41.0114581 211.584425,40.7369121 209.088821,41.2849399 C206.871702,41.8340318 204.653508,42.6566055 203.26754,43.7537252 C201.604163,44.8508449 200.495603,46.2225105 199.663377,47.5941762 C198.832226,48.9658418 198.277409,50.0629615 198.277409,51.1600811 C198,51.7081089 198,52.2572008 198,52.5317468 C198,53.0797745 198,53.3543205 198,53.6288664 C198,54.7259861 198,54.9994679 198,55.5485598 C198,55.2740139 198,55.5485598 198,55.5485598 Z" id="Path" fill="#FFFFFF" fill-rule="nonzero"></path>
            <path d="M269,111 C269,111 269.278655,111 269.556229,110.729638 C269.834884,110.459276 270.392193,110.188914 270.949502,109.649239 C272.06304,108.839201 273.733888,107.488439 275.404735,105.867316 C277.075582,103.976879 279.024004,101.545718 279.581313,98.3045194 C279.859968,96.6833961 279.859968,95.0633208 279.859968,93.1728835 C279.859968,91.5517603 280.138622,89.661323 281.252161,88.3105616 C282.365699,86.6894384 283.757892,85.6090388 285.151164,84.2582774 C286.543357,82.9085639 287.656895,81.5578025 288.214205,80.2070411 C289.049088,78.8562797 289.327743,77.2362043 289.606397,75.8854429 C289.885052,74.5346815 290.162627,73.1839201 289.885052,71.8331587 C289.885052,70.4834452 289.606397,69.4030456 289.327743,68.59196 C289.327743,67.7819224 289.327743,66.7015228 289.327743,66.1607991 C289.606397,64.8110856 289.885052,64 289.606397,64 C289.606397,64 289.606397,64.2703619 289.327743,64.5407237 C289.327743,64.8110856 289.049088,65.3507614 289.049088,66.1607991 C289.049088,66.7015228 289.049088,67.7819224 289.049088,68.59196 C289.049088,69.6723596 289.327743,70.7527591 289.327743,71.8331587 C289.327743,74.2643196 288.770434,77.2362043 287.378241,79.9366792 C286.543357,81.2874406 285.707394,82.638202 284.315201,83.9889635 C282.923008,85.338677 281.530815,86.4190765 280.417277,88.0401998 C279.859968,88.8502375 279.302659,89.661323 279.302659,90.4713607 C279.024004,91.2813984 279.024004,92.361798 279.024004,93.1728835 C279.024004,94.7929589 279.024004,96.6833961 278.74643,98.0341575 C278.18912,101.275356 276.518273,103.706517 274.847426,105.32764 C273.176578,107.218078 271.784386,108.298477 270.670847,109.378877 C270.113538,109.9196 269.834884,110.189962 269.556229,110.459276 C269,110.729638 269,111 269,111 Z" id="Path" fill="#291515" fill-rule="nonzero"></path>
            <path d="M280,89 C280,89 280,89 280,89.2740227 C280,89.5469833 280,89.821006 280,90.3690515 C280,91.1900575 280.27023,92.559109 280.809644,94.2011211 C281.350105,95.8441953 282.159749,97.7602301 283.510901,99.4033043 C284.861006,101.319339 286.750524,102.962413 288.91132,104.331465 C291.068974,105.699454 293.498953,106.521522 295.928932,106.794483 C298.09706,107.068506 300.254713,107.068506 301.878191,106.794483 C303.491194,106.521522 304.842346,105.973477 305.659322,105.699454 C306.193498,105.426494 306.465824,105.426494 306.738149,105.152471 C307,105.152471 307,104.878448 307,104.878448 C307,104.878448 305.114671,105.699454 301.605865,106.2475 C299.982388,106.521522 297.824734,106.521522 295.66708,106.2475 C293.498953,105.973477 291.068974,105.152471 288.91132,103.783419 C286.750524,102.414368 284.861006,100.772356 283.510901,98.8552589 C282.159749,97.2132468 281.350105,95.2961499 280.540461,93.6541378 C280,91.1900575 280,89 280,89 Z" id="Path" fill="#523332" fill-rule="nonzero"></path>
            <path d="M284,85 C284,85 284,85.5338161 284.272779,86.3335058 C284.54662,87.1331954 284.82046,88.1997931 285.641982,89.5332988 C287.010124,92.2003104 289.746408,95.6670115 293.580176,97.8002069 C297.677172,100.20031 301.784781,101 305.075114,101 C306.709667,101 307.802907,101 308.630797,100.733092 C309.448073,100.733092 310,100.466184 310,100.466184 C310,100.466184 308.07887,100.733092 305.075114,100.466184 C302.060745,100.20031 297.953135,99.3995862 293.85614,97.2663908 C290.020248,94.8662873 287.282903,91.6664942 285.914762,89.2663908 C284.54662,86.8673219 284.272779,85 284,85 Z" id="Path" fill="#523332" fill-rule="nonzero"></path>
            <path d="M312,75.2502425 C312,75.2502425 311.725143,75 311.186001,74.7507274 C310.911144,74.500485 310.636287,74.500485 310.097145,74.2502425 C309.547432,74 309.272575,74 308.733433,73.7507274 C307.644577,73.500485 306.280864,73.2502425 304.917152,73 C303.553439,73 301.640013,73 300.012015,73 C298.373446,73.2502425 296.734876,73.500485 295.371164,74 C294.018022,74.500485 292.65431,75 291.829739,75.7507274 C291.287426,76 291.014683,76.2502425 290.469198,76.500485 C290.197513,76.7507274 289.92477,77 289.652028,77.2502425 C289.106543,77.7507274 288.834857,78 289.106543,78 C289.106543,78 290.197513,77.2502425 292.104596,76.2502425 C292.918595,75.7507274 294.282308,75.2502425 295.64602,74.7507274 C297.009733,74.2502425 298.648302,74 300.286872,73.7507274 C301.91487,73.500485 303.553439,73.500485 304.917152,73.7507274 C306.280864,73.7507274 307.644577,74 308.733433,74.2502425 C310.636287,74.7507274 311.725143,75.2502425 312,75.2502425 Z" id="Path" fill="#523332" fill-rule="nonzero"></path>
            <path d="M262,64 C262,64 261.500606,62.7930058 260.250667,61.5860117 C258.999758,60.3790175 258,59.7749351 258,60.0769763 C258,60.0769763 259.000727,60.9819292 260.000485,62.1889234 C261.250424,63.0950471 262,64 262,64 Z" id="Path" fill="#FFFFFF" fill-rule="nonzero"></path>
            <path d="M289.428587,69 C289.428587,69 289.704036,69 289.428587,69 C289.704036,68.7255548 289.704036,68.4511096 289.979485,68.1766644 C290.254933,67.6288378 290.530382,66.8055023 290.804764,65.7087852 C291.080212,63.5153512 290.804764,60.2252002 288.327859,56.9350492 C287.776961,56.1127774 286.951682,55.2894418 286.125335,54.7416152 C285.300056,53.9193434 284.47371,53.370453 283.372982,52.8226264 C281.445907,51.7259094 278.969003,50.9025738 276.216649,50.3547472 C270.986323,49.2580302 265.206167,49.5324754 259.424943,48.7091398 C256.397141,48.1613132 253.644787,47.6124228 251.167882,46.2412606 C248.68991,44.8711622 246.488454,43.2255548 244.836829,41.306566 C241.258128,37.7419698 239.055605,33.3551018 237.405047,29.7905056 C235.753421,26.2259094 234.927075,23.2091398 234.101796,21.290151 C233.826347,20.193434 233.550898,19.3711622 233.275449,18.8222718 C233.275449,18.5478266 233,18.2744452 233,18.2744452 C233,18 233,18 233,18 C233,18 233,18 233,18.2744452 C233,18.5478266 233,18.5478266 233.275449,18.8222718 C233.550898,19.3711622 233.826347,20.193434 234.101796,21.290151 C234.651626,23.483585 235.753421,26.5003546 237.129598,30.063887 C238.781224,33.6284832 240.98268,37.7419698 244.56138,41.5799474 C246.488454,43.5 248.414461,45.1445436 251.167882,46.5157058 C253.644787,47.886868 256.67259,48.7091398 259.700392,48.983585 C265.755997,49.8058568 271.537221,49.5324754 276.49103,50.6291924 C281.445907,51.4514642 285.849887,53.6448982 288.327859,56.9350492 C290.804764,59.950755 291.355661,63.2419698 290.804764,65.4354038 C290.254933,67.903283 289.428587,69 289.428587,69 Z" id="Path" fill="#FAFAFA" fill-rule="nonzero"></path>
            <path d="M283,106.06038 C283,106.06038 283,107.426136 284.084937,109.886194 C284.627931,110.979435 285.442423,112.346251 286.52736,113.986643 C287.612297,115.35346 289.240229,116.719216 291.134396,118.086033 C293.039086,119.179274 295.754059,120 298.469032,120 C301.173482,120 304.162057,119.452849 306.603428,117.539942 C309.044799,115.89955 311.212568,113.165917 312.033373,109.886194 C312.570054,108.246862 312.570054,106.60647 312.306975,104.693563 C312.033373,103.053171 311.212568,101.41384 310.402285,99.7734479 C308.771197,97.3133902 306.066747,95.4004833 303.351774,94.8533325 L303.351774,95.4004833 C306.329826,94.8533325 309.044799,93.7600914 311.48617,92.1207598 C313.653939,90.4803679 315.558629,88.2938855 316.642514,86.1074032 C317.726398,83.6473455 318,81.1872878 318,79.0008055 C317.726398,76.8143231 316.916115,74.6278408 315.832231,73.2610243 C314.748346,71.6216927 313.39086,70.5284516 312.033373,69.7077254 C310.675887,68.8880596 309.592002,68.6144842 308.508118,68.3419692 C307.41371,68.0683938 306.603428,68.0683938 306.066747,68.0683938 C305.793145,68.0683938 305.519543,68.0683938 305.519543,68.0683938 C305.245941,68.0683938 305.245941,68.0683938 305.245941,68.0683938 C305.245941,68.0683938 306.329826,67.7948185 308.508118,68.3419692 C309.592002,68.6144842 310.675887,68.8880596 312.033373,69.7077254 C313.39086,70.5284516 314.474744,71.6216927 315.558629,73.2610243 C316.642514,74.9014162 317.452796,76.8143231 317.452796,79.0008055 C317.726398,81.1872878 317.189717,83.6473455 316.09531,85.8338278 C315.011425,88.0203102 313.39086,90.2067925 311.212568,91.8471844 C309.044799,93.4875763 306.329826,94.5808175 303.351774,95.1269079 L302.267889,95.4004833 L303.351774,95.6740587 C306.066747,96.2201491 308.508118,98.1341164 310.128683,100.320599 C311.212568,101.686355 311.759771,103.326747 312.033373,104.967139 C312.306975,106.60647 312.306975,108.246862 311.759771,109.886194 C310.949489,112.893402 309.044799,115.625975 306.603428,117.266367 C304.162057,118.905698 301.173482,119.726425 298.732111,119.726425 C296.027661,119.726425 293.58629,118.905698 291.6816,117.812457 C289.783223,116.719216 288.155292,115.35346 287.069302,113.986643 C285.984366,112.619827 285.170926,111.25301 284.627931,110.159769 C284.084937,109.066528 283.814492,107.973287 283.542995,107.427196 C283.271497,106.880046 283.271497,106.60647 283,106.06038 Z" id="Path" fill="#291515" fill-rule="nonzero"></path>
            <path d="M288.452854,65 C288.726732,64.7294804 289.000609,64.7294804 289.274486,64.4589607 C289.822241,64.1894896 290.642812,63.6484503 291.739383,62.8379399 C293.650155,61.2158705 296.112928,58.7832907 297.758316,54.4591704 C299.403703,50.4055698 299.679704,44.7298998 296.94093,39.5942205 C295.571543,36.8921696 293.650155,34.4595898 291.187382,32.5670008 C288.726732,30.6754603 285.442326,29.3239106 282.431798,28.2428805 C279.147393,27.1618504 275.864049,26.8913308 272.579643,26.6218597 C269.295238,26.35134 266.28471,26.0808204 263.548059,26.0808204 C260.53647,25.8103007 257.799819,25.5408296 255.337046,25.2703099 C252.873211,24.7292706 250.410438,24.1892799 248.494357,23.3787695 C244.389381,21.7567001 241.378853,19.5946399 239.736651,17.9725706 C238.915019,17.1620601 238.368325,16.3515497 237.820571,15.8105104 C237.546693,15.5399908 237.546693,15.2705196 237.273877,15.2705196 L237,15 C237,15 237.546693,16.3515497 239.188896,17.9725706 C240.831099,19.8651596 243.841627,22.0272197 247.947664,23.6482406 C250.13656,24.4597995 252.326518,24.9997903 255.063168,25.5408296 C257.525942,26.0808204 260.53647,26.35134 263.274182,26.6218597 C269.021361,27.1618504 275.590171,27.1618504 282.157921,29.0544395 C285.442326,29.8649499 288.452854,31.4859707 290.911381,33.1080401 C293.38477,34.9995806 295.295542,37.4321604 296.664929,39.8647402 C299.127703,44.9993709 299.127703,50.4055698 297.482315,54.4591704 C296.112928,58.5138196 293.38477,61.2158705 291.739383,62.8379399 C290.911381,63.6484503 290.095057,64.1894896 289.548364,64.4589607 C289.000609,64.7294804 288.726732,64.7294804 288.452854,65 Z" id="Path" fill="#291515" fill-rule="nonzero"></path>
            <path d="M183.343038,51.7746937 C183.343038,51.7746937 183.617595,52.047962 184.168846,52.3212303 C184.720097,52.3212303 185.821531,52.047962 186.372782,50.955948 C186.648408,50.4094113 186.648408,49.5906656 186.372782,49.0451882 C186.097157,48.4986516 185.27028,47.6799059 184.444472,47.4066376 C182.791787,46.5878918 180.58785,46.8611601 178.660608,48.2253833 C177.833731,48.7719199 177.007923,49.8639339 176.456671,50.955948 C175.90542,52.047962 175.90542,53.4132443 176.181046,54.7785267 C176.456671,56.1427498 177.283548,57.2347638 178.384982,58.3278371 C179.486416,59.1465828 180.863476,59.6920602 182.516161,59.9653285 C185.545906,60.2385968 188.575651,58.8733145 191.055212,56.6892864 C192.156646,55.5972724 193.25808,54.23199 193.809332,52.5944986 C194.360583,50.955948 194.63514,49.3173973 194.360583,47.6799059 C194.084957,46.0413552 193.533706,44.4038638 192.707898,43.0385814 C192.156646,41.6732991 191.605395,40.0358076 191.055212,38.6705253 C189.95271,35.6666923 189.402527,32.6639185 189.126902,29.9333539 C188.851276,27.2038484 189.126902,24.4732837 189.678153,21.7437782 C190.228336,19.2864818 191.330838,17.1024538 192.432272,15.1906348 C194.910766,11.6413244 197.94051,9.45729637 200.144447,8.36528234 C201.245881,7.81980491 202.072758,7.54653661 202.898566,7.2732683 C203.174192,7.2732683 203.449817,7.2732683 203.725443,7 C204,7 204,7 204,7 C204,7 204,7 203.725443,7 C203.449817,7 203.174192,7 202.898566,7 C202.347315,7 201.245881,7.2732683 200.144447,7.81980491 C197.94051,8.91181894 194.910766,10.8225787 192.432272,14.6451574 C191.330838,16.5559172 190.228336,18.7399452 189.678153,21.1972416 C189.126902,23.654538 188.851276,26.3840435 189.126902,29.3878764 C189.402527,32.3906502 189.95271,35.3944832 191.055212,38.397257 C191.605395,39.7625393 192.156646,41.4000308 192.707898,42.7653131 C193.25808,44.1305955 193.809332,45.7691461 194.084957,47.4066376 C194.360583,49.0451882 194.084957,50.6826796 193.533706,52.047962 C192.983523,53.4132443 192.156646,54.7785267 191.055212,55.8705407 C188.851276,58.0545687 185.821531,59.4198511 183.067412,59.1465828 C181.690353,58.8733145 180.313293,58.3278371 179.210791,57.5080321 C178.109357,56.6892864 177.558105,55.5972724 177.283548,54.23199 C177.007923,53.139976 177.007923,51.7746937 177.558105,50.6826796 C177.833731,49.5906656 178.660608,48.7719199 179.486416,47.9531742 C181.139101,46.5878918 183.343038,46.3146235 184.995723,47.1333692 C185.821531,47.4066376 186.372782,47.9531742 186.922965,48.4986516 C187.198591,49.0451882 187.474217,49.8639339 187.198591,50.4094113 C186.648408,51.5024846 185.545906,52.047962 184.995723,51.7746937 C183.618663,52.047962 183.617595,51.5024846 183.343038,51.7746937 Z" id="Path" fill="#263238" fill-rule="nonzero"></path>
            <path d="M229,153.545719 C229,153.545719 233.96596,158.455339 233.689895,162 C233.689895,162 240.58617,158.727273 242.517555,158.727273 C244.725005,159.000265 245,156.272463 245,156.272463 C245,156.272463 241.414365,151.636893 240.862235,151.363901 C240.310105,151.090909 237.27553,150 237.27553,150 L229,153.545719 Z" id="Path" fill="#ECC697" fill-rule="nonzero"></path>
            <path d="M302,376.553912 C302,376.553912 188.007476,336.929145 137.161883,338.022205 C137.161883,338.022205 84.4024885,421.371512 68,508" id="Path" stroke="#FFFFFF" stroke-width="0.5"></path>
        </g>
        <polygon id="Path" fill="#FFFFFF" fill-rule="nonzero" points="823 359 66 359 66 379.19505 106.645566 379.19505 85.6408603 763.181568 97.3705687 764 118.103352 379.19505 781.80953 379.19505 799.542699 763.726836 811.27664 763.726836 793.268374 379.19505 823 379.19505"></polygon>
        <g id="Group-2" transform="translate(762.000000, 313.000000)" fill-rule="nonzero">
            <path d="M120.430042,335 C120.430042,335 123.91598,299.761276 156.519745,284.449212 C168.310415,278.890722 177.127785,268.088376 179.588447,255.083608 C180.408667,250.573891 180.613722,245.854419 179.485919,241.239824 C179.485919,241.239824 174.667124,227.605794 176.205037,210.720572 C176.92273,203.169417 179.998557,196.03777 184.714825,190.16465 C189.841203,183.767143 196.813078,172.755042 197.633298,158.596626 C198.145936,149.577191 194.967581,140.76751 189.431093,133.740741 C183.894604,126.609094 176.307565,113.079941 178.973281,94.2020535 C178.973281,94.2020535 184.714825,52.5658232 157.647548,49 C157.647548,49 126.889279,51.4121746 130.785326,99.8654199 C130.785326,99.8654199 134.988957,123.777411 125.556421,139.928493 C125.556421,139.928493 105.153435,160.589292 117.661798,200.232857 C117.661798,200.232857 127.094334,222.361936 112.740475,237.988632 C112.843003,237.988632 89.7743009,263.368904 120.430042,335 Z" id="Path" fill="#42B58B"></path>
            <path d="M94.5580455,357 C94.5580455,357 97.9645528,303.274452 56.0541894,280.399121 C56.0541894,280.399121 43.8733449,251.857424 51.5121796,230.451151 C51.5121796,230.451151 63.2801141,204.84757 59.7703793,175.466411 C59.7703793,175.466411 36.2345102,141.048482 54.092867,102.957908 C54.092867,102.957908 77.0093711,87.0081359 77.9384186,50.9112835 C77.9384186,50.9112835 79.486831,-1.13534091 107.358255,0.0189189064 C107.358255,0.0189189064 138.016821,9.25299743 125.526294,67.7005172 C125.526294,67.7005172 117.06164,96.1372817 123.771427,117.75342 C123.771427,117.75342 140.700736,147.134579 121.087512,192.990174 C121.087512,192.990174 107.667937,218.174024 119.435872,240.000028 C119.332645,240.104961 138.120049,275.782082 94.5580455,357 Z" id="Path" fill="#2F9E77"></path>
            <polygon id="Path" fill="#FFFFFF" points="100.046187 49 101.503819 49.0390643 92.9423543 381 91.4847222 380.960936"></polygon>
            <polygon id="Path" fill="#FFFFFF" points="151.138419 100 152.601215 100.192201 116.993352 376 115.530556 375.807799"></polygon>
            <path d="M73.4965686,355 C73.4965686,355 69.6514271,322.985466 40.1045506,309.75979 C29.3786297,304.931369 21.1824071,295.274526 18.6527088,283.413403 C17.7420174,279.319742 17.5396415,275.016149 18.4503329,270.817521 C18.4503329,270.817521 25.0275486,250.349213 17.8432053,229.670973 C17.8432053,229.670973 -7.35259007,208.782802 2.66501532,178.237788 C2.66501532,178.237788 20.1705278,162.807832 15.8194466,136.671377 C15.8194466,136.671377 9.74817065,98.8837303 34.0332746,95 C34.0332746,95 61.7587683,96.4695196 59.22907,140.765038 C59.22907,140.765038 55.9910561,162.702866 64.7944063,177.188131 C64.7944063,177.188131 83.6153619,195.557126 73.0918168,231.980218 C73.0918168,231.980218 65.0979701,252.448526 78.2524014,266.303997 C78.2524014,266.408962 99.6030554,288.976585 73.4965686,355 Z" id="Path" fill="#42B58B"></path>
            <polygon id="Path" fill="#FFFFFF" points="40.8368028 157 75.4541667 354.740175 74.0027805 355 39.3854167 157.259825"></polygon>
        </g>
        <g id="Group-4" transform="translate(6.000000, 54.000000)">
            <mask id="mask-2" fill="white">
                <use xlink:href="#path-1"></use>
            </mask>
            <g id="Mask" fill-rule="nonzero"></g>
            <polygon id="Path" fill="#132236" fill-rule="nonzero" mask="url(#mask-2)" points="897.897284 691 810.44275 691 800.959729 601 907.380306 601"></polygon>
        </g>
    </g>
</svg>