<svg width="793" height="339" xmlns="http://www.w3.org/2000/svg"><g fill-rule="nonzero" fill="none"><path d="M138.5 260.8c2.2-2.3 3.8-5.1 4.6-8.1-2.8 1.8-5.6 3.6-8.4 5.3-.2-.2-.3-.4-.5-.6 1.5-3.4 3.2-6.8 4.4-10.3 1.2-3.6 2.1-7.3.9-11-1.1 1.8-2.3 3.7-3.5 5.6l-.1-.1s0 .1.1.1c-1.5 3.4-4.1 5.6-7.3 7.7-.1-.9-.2-1.5-.2-2-.3-5.8-2.4-10.9-6.2-15.3-4.4-5.1-10.1-8.4-15.9-11.4-.4-.2-1.2-.2-1.6 0-3.4 1.9-6.8 4-10.2 6 .2.1.5.2.8.4 5.6 2.7 11.5 5 16.9 8.1 4.3 2.5 6.7 6.8 7.5 11.8-2.1-1.2-4.1-2.3-6.2-3.5-.1.2-.2.3-.4.5 2.5 3.5 3.7 7.2 3.1 11.3-1.9-1.6-3.7-3.3-5.6-4.9-.2.1-.4.3-.5.4 3.4 7.9 2 15.5-1.5 22.8-3.4 7.3-8.3 13.3-15.5 17.4 10.6-1.4 20.3-5.4 29.9-9.8-1.2-.5-2.2-1-3.7-1.6 7.6-3 14.2-6.3 18.6-13.4-2.5.6-4.6 1.1-7.1 1.6 2.9-2.6 5.4-4.7 7.6-7zM14.8 58.3c1.6-5.4 4-10.5 8.4-14.7-5.6-2.1-10.8-1.7-16.3.6 3.4.6 6.5.9 8.7 4.2-6-.6-11 .3-15.1 4.9h11.3c0 .2.1.4.1.6-3.6 1.6-7.7 2.4-10.5 5.7h8.9c-2.8 2.2-5.9 3.8-6.9 7.3 2.4-.5 4.8-1 7.2-1.4-4.7 5-5.8 7.3-4.9 10.9 1.1-2 2.5-3.4 5-3.5 0 4.1-1.8 7.3-4.8 10.6 2.4-.7 4.2-1.1 6.7-1.8-.8 2.5-1.5 4.6-2.3 7 1.2-.9 2.2-1.8 3.3-2.5 1.6-1.1 1.7-2.5 1.3-4.4-2.2-7.8-2.4-15.7-.1-23.5zM38.2 41.3c.2.5.8 1.1 1.2 1.2 3.8.5 7.7 1 11.6 1.4-1.5-3.7-3.5-7-7.2-9.2.4 2.2.7 4.1 1.1 6.3-3.3-2.6-6.3-5-9.7-7.8 1.2 3.2 2 5.7 3 8.1zM64.6 77.6c.4.6.6 1.3 1.1 1.6.7.3 1.5.3 2.3.4 1.5.2 3 .4 4.4.6-1.4-2-3.4-3.7-6.2-3.7-.5.1-1.1.8-1.6 1.1z" fill="#148A89"/><path d="M64.5 118.1c5.9-5.4 15.3-10.4 24.6-14.4-12.1-4.9-22.7-8.1-22.9-8.1-4.9-1.7-9.7-3.5-14.5-5.2-5-1.9-9.8-4.1-13.7-8-4.9-5-3.6-11.1 2.7-13.5-.4-1.3-.7-2.6-1.2-4.3 3 1 3.7 2.7 2.7 5.2-1.4 3.6-.5 5.5 3.3 6.4 2.1.5 4.2.7 6.4.9 3 .3 5.9.7 8.2 3 1.4 1.4 2.7 3 3.9 4.5 4.1 5.3 7.4 4.9 12.4.4-1.1-.4-2-.7-2.9-1.1-3-1.4-6.1-2.5-8.9-4.2-1.9-1.2-1.5-2.6.7-3.4 3.2-1.1 6-.2 8.6 1.7 1.3.9 2.3 2.2 3.6 3.3.6.5 1.4.7 2.1 1 .2-.6.6-1.3.6-1.9.1-.9-.4-1.8-.1-2.6 1-3.1 0-5.5-2.3-7.5-.8-.7-1.1-1.4-.8-2.7.8-3-.9-4.9-3.9-5-1.4 0-3.1 0-4.3-.5-2.4-1.1-4.6-2.7-6.9-4-1.9-1-2.2-2.7-1.6-4.3.6-1.5.1-2.5-.8-3.6-2.2-2.5-5.1-3.7-8.2-4.5-3.7-.9-7.5-1.1-11.8-.9 1.5 1.8 2.6 3.2 3.7 4.6-.1.2-.3.4-.4.6-.9-.6-2-1.1-2.6-1.8-1.1-1.2-1.9-2.7-2.8-4-2.8-3.6-5.4-7.4-8.5-10.8-2.6-2.8-6-4.7-10.1-5.3 2.7 1.9 2.6 4.4 1.9 7.1-.1.3.1.6.2.9.6 2.9 2.6 4.8 5 6.2 2.1 1.2 3 3 2.9 5.3-.2 2.8-.4 5.6-.5 8.4 0 2.7 1 3.6 3.7 4 .5.1 1 .5 1.9 1-4.2.8-6.3-.3-7-3.7-.4-2.2-.2-4.5-.2-6.8 0-1.1 0-2.2-.3-3.3-.4-1.6-1.6-1.8-2.7-.5-1.2 1.5-2.5 3-3.4 4.6-5.3 9.5-6 19.6-3.9 30 1.6 8 5.6 14.5 12.3 19.4 5.6 4.1 11.8 7.1 18.1 9.9 6.3 2.8.1 0 .1.1 1.1.5 2.3 1 3.4 1.5 5.3 1.9 10.1 4 14.2 5.9zM51.9 57c.7 0 1.4.8 2 1.4.2.2-.1 1.1-.2 1.1-.7.1-1.6.2-2.3 0-1.3-.4-2.6-1.1-4.5-2 2.1-.2 3.5-.5 5-.5zM90 188.7c4-3.8 8.5-7.1 12.9-10.5 6.8-5.1 13.7-10 18.8-16.9 6.7-9.2 8.5-19.2 4.4-29.9-1.3-3.3-3.7-6.1-5.6-9.1h.2l-.9-.7c-.3-.3-.6-.6-.9-1-14.6 6.7-21.8 11-25.2 13.4.3.2.4.4.6.5.5.6 1 1.1 1.5 1.5 5.1 5.4 5.7 12.2 1.3 18.1-1.9 2.5-4.1 4.8-6.4 7.1-4.6 4.6-9.6 8.9-14.1 13.6-5.1 5.4-8.7 11.6-8.8 19.3-.2 8.7 2.2 16.4 8.7 22.4.5.5 1.5 1.1 2 .9 4.3-1.6 8.2-3.9 11.7-6.9-.3-.4-.4-.5-.6-.7-6.5-7-6.6-14.3.4-21.1z" fill="#148A89"/><g fill="#E9505C"><path d="M74.8 275.7c-3.3-7.3-4.4-14.7-1.3-22.6-2.1 1.5-4.2 3-6.4 4.7.2-4.7 1.4-8.9 4.5-13.1-6 3.1-9.1 8-12 13.2-1.5-1.2-3-2.2-4.3-3.4-3.6-3.4-6.9-7.1-8.7-11.8-.8-1.5-1.7-3.1-2.6-4.7-2 8.3 2.7 14.9 5.3 21.9-.2.1-.4.3-.6.4-2.8-1.8-5.6-3.6-8.3-5.4 1.3 3 2.7 5.9 4.8 8.3 2 2.4 4.6 4.3 7 6.4 0 .1-.1.3-.1.4-2.2-.5-4.4-.9-7.1-1.5 1.3 1.6 2.2 3 3.4 4.1 4.3 4.2 9.5 6.8 15.7 9.2-2 .4-3.4.7-4.8 1-.1.2-.1.4-.2.6 4.6 2 9 4.3 13.7 5.8 5.4 1.7 11 2.8 16.4 4.1h1.3c-.2-.2-.4-.4-.7-.5-6.9-3.9-11.7-9.8-15-17.1zM160.4 46.4c-1-1.3-2.2-1.1-2.7.5-.3 1-.2 2.2-.3 3.3-.1 2.3.2 4.6-.2 6.8-.6 3.4-2.8 4.5-7 3.7 1-.5 1.4-1 1.9-1 2.7-.4 3.7-1.4 3.7-4 0-2.8-.3-5.6-.5-8.4-.1-2.4.8-4.1 2.9-5.3 2.4-1.4 4.3-3.3 5-6.2.1-.3.3-.6.2-.9-.6-2.7-.8-5.2 1.9-7.1-4.1.7-7.5 2.5-10.1 5.3-3.1 3.4-5.7 7.1-8.5 10.8-1 1.3-1.8 2.7-2.8 4-.7.8-1.8 1.2-2.6 1.8-.1-.2-.3-.4-.4-.6 1.1-1.4 2.2-2.8 3.7-4.6-4.3-.2-8.1 0-11.8.9-3.1.8-6 1.9-8.2 4.5-.9 1.1-1.4 2-.8 3.6.7 1.7.3 3.3-1.6 4.3-2.3 1.3-4.5 2.9-6.9 4-1.2.6-2.9.5-4.3.5-3 .1-4.7 2-3.9 5 .4 1.3 0 2-.8 2.7-2.3 2-3.3 4.4-2.3 7.5.2.8-.2 1.7-.1 2.6 0 .7.4 1.3.6 1.9.7-.3 1.5-.5 2.1-1 1.3-1 2.3-2.3 3.6-3.3 2.6-1.8 5.4-2.8 8.6-1.7 2.2.8 2.7 2.2.7 3.4-2.8 1.7-5.9 2.9-8.9 4.2-.9.4-1.8.7-2.9 1.1 5 4.5 8.3 4.9 12.4-.4 1.2-1.6 2.5-3.1 3.9-4.5 2.2-2.2 5.2-2.7 8.2-3 2.1-.2 4.3-.4 6.4-.9 3.8-.9 4.7-2.7 3.3-6.4-1-2.6-.2-4.2 2.7-5.2-.5 1.7-.8 3-1.2 4.3 6.4 2.5 7.6 8.5 2.7 13.5-3.8 3.9-8.7 6.2-13.7 8-4.8 1.8-9.7 3.5-14.5 5.2-.3.1-41.3 12.2-53.7 26.1l-.9.7h.2c-1.9 3-4.3 5.8-5.6 9.1-4.1 10.7-2.2 20.8 4.4 29.9 3.6 4.9 8.2 8.9 13 12.5l.1-.1c2.8-2.9 5.7-5.7 8.6-8.4 1.8-1.7 3.7-3.5 5.5-5.3l1.2-1.2c-1.4-1.5-2.7-3-3.9-4.6-4.4-5.9-3.8-12.7 1.3-18.1.4-.4.8-.8 1.2-1.3.1-.1.2-.2.2-.3 1.4-1.3 9.3-8 44-22.8 1.2-.5 2.4-1 3.5-1.5h.1c6.3-2.7 12.5-5.8 18.1-9.9 6.7-4.8 10.6-11.3 12.3-19.4 2.1-10.5 1.4-20.6-3.9-30-.7-1.3-2-2.8-3.2-4.3zm-27.8 13.2c-.7.2-1.5.1-2.3 0-.1 0-.4-1-.2-1.1.6-.6 1.3-1.3 2-1.4 1.4-.1 2.9.3 5 .5-1.9.8-3.2 1.5-4.5 2z"/><path d="M172.2 53.9c0-.2.1-.4.1-.6h11.3c-4.1-4.5-9.1-5.5-15.1-4.9 2.2-3.3 5.2-3.6 8.7-4.2-5.6-2.4-10.8-2.7-16.3-.6 4.4 4.1 6.8 9.2 8.4 14.7 2.3 7.7 2.1 15.6.1 23.4-.5 1.9-.3 3.2 1.3 4.4 1.1.8 2.2 1.7 3.3 2.5-.8-2.4-1.5-4.4-2.3-7 2.5.7 4.3 1.2 6.7 1.8-3-3.3-4.8-6.5-4.8-10.6 2.5.1 3.9 1.6 5 3.5.9-3.7-.2-5.9-4.9-10.9 2.4.5 4.7.9 7.2 1.4-1-3.5-4.1-5.1-6.9-7.3h8.9c-3-3.2-7.1-4-10.7-5.6zM145.8 41.3c1-2.4 1.8-4.9 3-8-3.5 2.8-6.4 5.1-9.7 7.8.4-2.2.8-4.2 1.1-6.3-3.7 2.1-5.7 5.5-7.2 9.2 3.9-.5 7.8-.9 11.6-1.4.4-.2 1-.8 1.2-1.3zM119.4 77.6c-.5-.4-1.1-1-1.6-1-2.9 0-4.8 1.7-6.2 3.7 1.4-.2 2.9-.4 4.4-.6.8-.1 1.7 0 2.3-.4.5-.3.8-1.1 1.1-1.7zM105.7 178.4c-.6.4-1.1.8-1.7 1.2l-1 .7c-3.3 2.5-6.6 5-9.7 7.7l.4.4-.1.1c7 7.9 6.7 15.3-.7 22.1-1.9 1.8-4.2 3.3-6.5 4.7-5.5 3.3-11.3 6.2-16.8 9.5-6.7 4.1-12 9.6-14 17.6-1.4 5.6-.5 9.6 2.8 12.3 1.1-1.8 2.2-3.7 3.2-5.5.9-1.7 1.7-3.5 2.7-5.2 1.4-2.4 2.7-5 4.5-7 3.3-3.7 7.9-5.6 12.5-7.4 5.9-2.5 12-4.7 17.7-7.5 2.8-1.4 5.2-2.9 7.2-4.8.4-.2.8-.5 1.1-.7 6.5-6 8.9-13.7 8.7-22.4-.1-7.1-3.2-12.9-7.6-18-.8.8-1.8 1.5-2.7 2.2zM48 241.6l-.1.1.1-.1z"/></g><path d="M98.4 16.7c1.5-.3 2.6-2.1 2.6-4.3V4.3c0-2.4-1.4-4.3-3.1-4.3h-9.1c-1.7 0-3.1 2-3.1 4.3v8.1c0 2.3 1.2 4.1 2.8 4.3l.8 86.6c2.8-1.2 5.5-2.4 8.2-3.4l.9-83.2zM92.9 335.3c0 1.7.2 3.1.4 3.1h.3c.2 0 .4-1.4.4-3.1l.2-108.7-1.5.6.2 108.1zM97.2 150.1l.2-18.1c-5 2.9-7 4.5-7.7 5.1l.2 22.8s5.1-4.6 7.3-9.8zM90.2 191l.1 7.6c0 1.7 1 3.1 2.2 3.1h.2v7.8l.2-.2c.5-.4.9-.9 1.3-1.3v-6.2h.2c1.2 0 2.2-1.4 2.2-3.1l.1-7.2c-.7-1.2-1.5-2.4-2.5-3.6l-4 3.1z" fill="#939393"/><path d="M239.4 218.8c-6.8 0-12.9-1.2-18.3-3.7s-9.7-5.7-13-9.8c-3.3-4.1-5.7-8.6-7.4-13.7-1.7-5-2.5-10.3-2.5-15.8 0-5.8.9-11.4 2.6-16.6 1.7-5.3 4.3-10 7.6-14.3 3.4-4.3 7.8-7.7 13.3-10.2 5.5-2.5 11.7-3.8 18.7-3.8 10.1 0 17.9 3.7 23.4 11V133h19.9v83.9h-20.4v-11.4c-6.1 8.9-14.1 13.3-23.9 13.3zm2.5-16.3c7.8 0 13.6-2.5 17.1-7.5 3.6-5 5.4-11.6 5.4-20 0-8.6-1.9-15.3-5.7-20.2-3.8-4.9-9.5-7.4-17.2-7.4-7.5 0-13.3 2.5-17.3 7.4-4 5-6 11.6-6 20s2 15.1 6 20.1c4 5.1 9.9 7.6 17.7 7.6zM339.1 218.8c-6.8 0-13-1.2-18.7-3.6-5.6-2.4-10.3-5.6-13.9-9.7-3.6-4.1-6.4-8.8-8.3-14-2-5.3-2.9-10.8-2.9-16.6 0-8.3 1.7-15.7 5.1-22.4 3.4-6.6 8.4-11.9 15.1-15.8 6.7-3.9 14.5-5.8 23.3-5.8 13.2 0 23.3 3.8 30.4 11.3l-7.3 13.1c-6-5.3-13.1-8-21-8-8 0-14.1 2.5-18.3 7.5-4.2 5-6.4 11.7-6.4 20.2 0 8.2 2.3 14.9 6.8 19.9 4.5 5 10.7 7.6 18.6 7.6 1.1 0 2.2-.1 3.3-.2 1.1-.1 2.1-.2 2.9-.4.9-.2 1.8-.4 2.7-.7 1-.3 1.8-.6 2.4-.8.7-.2 1.4-.6 2.2-1 .8-.4 1.5-.8 1.9-1 .5-.2 1-.6 1.8-1.1.7-.5 1.2-.8 1.4-1 .2-.2.7-.5 1.3-.9.6-.5 1-.7 1-.8l6.1 14.9c-4.7 3.3-9.4 5.7-14.1 7.2-4.5 1.4-9.7 2.1-15.4 2.1zM408.4 218.8c-10.1 0-18-2.9-23.7-8.7-5.7-5.8-8.5-13.8-8.5-23.9v-53.1h20.1v52.8c0 5.6 1.4 9.7 4.3 12.5 2.9 2.8 6.9 4.1 11.9 4.1 6.1 0 10.5-1.5 13.4-4.5 2.9-3 4.4-7.9 4.4-14.6v-50.3h20.3v61.3l1 22.6h-20.9l-.3-12.4c-.3 1.2-.9 2.5-1.8 4-1 1.4-2.3 3-3.9 4.6-1.7 1.6-3.9 3-6.8 4.1-2.9 1-6 1.5-9.5 1.5z" fill="#148A89"/><path d="M468.7 251.9v-94.5c0-3.7-.3-11.8-.9-24.4h15.8l.1 15c1.6-4.6 5-8.6 10.3-12 5.3-3.4 11.2-5.1 17.8-5.1 11.3 0 20.4 4 27.2 12.1 6.8 8.1 10.2 18.4 10.2 31.1 0 12.9-3.4 23.6-10.3 32-6.9 8.4-16 12.6-27.4 12.6-6.6 0-12.6-1.6-17.7-4.7-5.2-3.1-8.5-6.7-10.1-10.8v48.6h-15v.1zm40.2-45.3c7.9 0 14-2.9 18.3-8.7 4.3-5.8 6.4-13.5 6.4-23.1 0-9.5-2.1-17.1-6.4-22.8-4.3-5.7-10.3-8.6-18.2-8.6-8.1 0-14.4 3-18.9 9-4.5 6-6.8 13.8-6.8 23.6 0 9.3 2.2 16.7 6.7 22.3 4.4 5.4 10.7 8.3 18.9 8.3zM562.6 216.9V95.5h15v50.8c2.5-4.6 6.4-8.3 11.7-11.1 5.3-2.8 10.9-4.2 16.8-4.2 5.2 0 9.9.9 13.9 2.8s7.3 4.4 9.7 7.6c2.5 3.2 4.3 7 5.6 11.2 1.3 4.2 1.9 8.8 1.9 13.8V217h-15.1v-50.2c0-8.2-1.4-14.2-4.2-17.9-2.8-3.7-7.4-5.6-13.7-5.6-6.9 0-13 2.3-18.4 6.9-5.4 4.6-8.1 9.9-8.1 15.9v50.8h-15.1zM658.9 252.3l-6.1-10.3c13.6-4.5 22-11.7 25.3-21.5l1.4-4.2-34.2-83.2h15.8l25.9 67 24.3-67h15.1l-33.8 88.3c-3 7.9-7.4 14.6-13.1 19.9-6 5.4-12.8 9.1-20.6 11zM762.8 218.7c-7.2 0-13.6-1.1-19.2-3.3-5.5-2.2-9.8-4.5-12.9-6.9l4.2-11.2c3.1 2.3 7.1 4.4 11.9 6.2 4.8 1.9 9.7 2.8 14.8 2.8 11.1 0 16.7-4.1 16.7-12.3 0-3.4-1.3-6-3.8-7.7-2.5-1.7-7.4-3.8-14.6-6.2l-7.2-2.5c-2.8-1-5.1-1.9-7.1-2.8-1.9-.9-3.9-2-5.8-3.3-2-1.3-3.5-2.8-4.7-4.3-1.2-1.6-2.2-3.4-2.9-5.6-.7-2.2-1.1-4.7-1.1-7.5 0-4 .8-7.5 2.5-10.6 1.7-3.1 3.9-5.5 6.8-7.3 2.9-1.8 6.1-3.1 9.6-4 3.5-.9 7.2-1.3 11.3-1.3 11.1 0 20.4 2.4 28 7.3l-4.2 10.8c-7.4-3.9-14.7-5.9-22.1-5.9-5.4 0-9.6.9-12.5 2.8-2.9 1.9-4.4 4.5-4.4 7.8 0 3.1.9 5.3 2.7 6.7 1.8 1.4 5.3 3.1 10.6 5 4.7 1.6 7.5 2.5 8.4 2.9 3.4 1.2 6.2 2.2 8.3 3.1 2.1.9 4.3 2 6.7 3.5 2.4 1.4 4.2 3 5.5 4.5 1.3 1.6 2.3 3.6 3.2 5.9.8 2.4 1.3 5.1 1.3 8.1 0 4.5-.8 8.4-2.5 11.7-1.7 3.4-4 6-6.9 7.8-2.9 1.9-6 3.3-9.4 4.2-3.7 1.2-7.3 1.6-11.2 1.6z" fill="#939393"/></g></svg>