<?xml version="1.0" encoding="UTF-8"?>
<svg width="40px" height="40px" viewBox="0 0 40 40" version="1.1" xmlns="http://www.w3.org/2000/svg" xmlns:xlink="http://www.w3.org/1999/xlink">
    <title>Logo/Hollow</title>
    <g id="Logo/Hollow" stroke="none" stroke-width="1" fill="none" fill-rule="evenodd">
        <polyline id="Stroke-1" stroke="#FFBC42" stroke-width="2.5" stroke-linejoin="round" points="33.3791748 17.4936378 33.3791748 17.5856475 25.1854363 27.7285191"></polyline>
        <polyline id="Stroke-3" stroke="#FFBC42" stroke-width="2.5" stroke-linejoin="round" points="6.31835351 17.4835259 6.31835351 17.5755356 14.5054673 27.7277002"></polyline>
        <path d="M12.9908039,16.8294383 C12.944615,16.6362179 12.8824165,16.4506344 12.8058644,16.2736998 C12.1949201,14.8619952 10.6729879,14.0044649 9.09483777,14.2920872 C7.47169492,14.5879903 6.33169492,15.9963826 6.31807748,17.5875061 C6.13957869,16.7019128 6.04600484,15.7856804 6.04600484,14.8474576 C6.04600484,7.22509927 12.2251913,1.04600484 19.8474576,1.04600484 C27.469816,1.04600484 33.6489104,7.22509927 33.6489104,14.8474576 C33.6489104,15.781724 33.5560726,16.694276 33.379138,17.5764649 C33.360276,15.9898499 32.2217482,14.5873462 30.6023777,14.2920872 C29.0242276,14.0044649 27.5022954,14.8619952 26.8913511,16.2736998 C26.8124988,16.456063 26.7487361,16.6477191 26.7021792,16.8472881" id="Stroke-5" stroke="#FFBC42" stroke-width="2.5" stroke-linejoin="bevel"></path>
        <path d="M26.748184,14.8474576 C26.748184,15.4901453 26.7261937,16.1226199 26.6835932,16.741937 C26.3357046,15.0812542 23.4068523,13.7847458 19.8451574,13.7847458 C16.2951477,13.7847458 13.3737482,15.0727893 13.0101259,16.7256513 C12.9683535,16.1114867 12.9467312,15.4845327 12.9467312,14.8474576 C12.9467312,7.22509927 16.0363245,1.04600484 19.8474576,1.04600484 C23.6586828,1.04600484 26.748184,7.22509927 26.748184,14.8474576 Z" id="Stroke-7" stroke="#FFBC42" stroke-width="2.5" stroke-linejoin="bevel"></path>
        <polyline id="Stroke-9" stroke="#FFBC42" stroke-width="2.5" stroke-linejoin="round" points="26.7251816 16.6740431 26.7251816 16.7660528 23.1587942 26.0447695"></polyline>
        <polyline id="Stroke-11" stroke="#FFBC42" stroke-width="2.5" stroke-linejoin="round" points="12.9697337 16.6631676 12.9697337 16.7551772 16.5331768 26.043923"></polyline>
        <path d="M26.745847,32.0992736 C26.745847,35.9104068 23.6563458,39 19.8451206,39 C16.0339874,39 12.9443942,35.9104068 12.9443942,32.0992736 C12.9443942,28.2881404 16.0339874,25.1985472 19.8451206,25.1985472 C23.6563458,25.1985472 26.745847,28.2881404 26.745847,32.0992736 Z" id="Stroke-13" stroke="#006CF9" stroke-width="2" fill="#006CF9"></path>
        <path d="M18.8398872,34.7120266 L22.2711123,32.5673729 C22.6171608,32.3512421 22.6171608,31.8473051 22.2711123,31.6311743 L18.8398872,29.4865206 C18.4721245,29.2567724 17.9952383,29.5211162 17.9952383,29.9547579 L17.9952383,34.2437893 C17.9952383,34.677431 18.4721245,34.9417748 18.8398872,34.7120266" id="Fill-15" fill="#FFFFFF"></path>
    </g>
</svg>