<?xml version="1.0" encoding="UTF-8"?>
<svg width="40px" height="40px" viewBox="0 0 40 40" version="1.1" xmlns="http://www.w3.org/2000/svg" xmlns:xlink="http://www.w3.org/1999/xlink">
    <title>Logo/Filled</title>
    <g id="Logo/Filled" stroke="none" stroke-width="1" fill="none" fill-rule="evenodd">
        <path d="M32.6507692,13.8304 C32.2686154,9.1776 29.3184615,5.23337143 25.2098462,3.39474286 C25.4609231,3.78148571 25.7009231,4.20022857 25.9270769,4.64822857 C27.164,7.09942857 27.9052308,10.2500571 28.0501538,13.6265143 C28.9261538,13.1666286 29.9563077,12.9929143 30.9966154,13.1812571 C31.6003077,13.2900571 32.1587692,13.5149714 32.6507692,13.8304 L32.6507692,13.8304 Z M32.3858462,17.2169143 C32.2233846,16.3218286 31.5116923,15.5977143 30.5830769,15.4294857 C29.5510769,15.2429714 28.5412308,15.7778286 28.1258462,16.7286857 C28.0889231,16.8137143 28.0566154,16.9014857 28.0307692,16.9901714 C28.0187692,17.0523429 28.0003077,17.1145143 27.9772308,17.1739429 L24.7363077,25.5250286 C24.92,25.6566857 25.0972308,25.7965714 25.2689231,25.9428571 L32.3858462,17.2169143 Z M25.7673846,32 C25.7673846,28.8493714 23.1790769,26.2857143 19.9981538,26.2857143 C16.8163077,26.2857143 14.2289231,28.8493714 14.2289231,32 C14.2289231,35.1506286 16.8163077,37.7142857 19.9981538,37.7142857 C23.1790769,37.7142857 25.7673846,35.1506286 25.7673846,32 L25.7673846,32 Z M14.7283077,25.9428571 C14.9,25.7956571 15.0781538,25.6557714 15.2618462,25.5241143 L12.0227692,17.1620571 C12.0135385,17.1392 12.0061538,17.1163429 11.9987692,17.0925714 C11.9978462,17.0916571 11.9978462,17.0898286 11.9978462,17.0889143 C11.9895385,17.0550857 11.9812308,17.0221714 11.972,16.9892571 C11.9452308,16.8996571 11.9138462,16.8128 11.8769231,16.7277714 C11.4615385,15.7778286 10.4507692,15.2438857 9.41969231,15.4294857 C8.492,15.5968 7.78307692,16.3172571 7.61784615,17.2096 L14.7283077,25.9428571 Z M7.34923077,13.8313143 C7.84123077,13.5158857 8.40061538,13.2900571 9.00523077,13.1812571 C10.0446154,12.9929143 11.0738462,13.1666286 11.9498462,13.6256 C12.0947692,10.2491429 12.836,7.09942857 14.0729231,4.64822857 C14.2990769,4.20022857 14.5390769,3.78148571 14.7901538,3.39474286 C10.6815385,5.23337143 7.73046154,9.17851429 7.34923077,13.8313143 L7.34923077,13.8313143 Z M19.9981538,14.944 C18.4372308,14.944 16.9575385,15.2109714 15.8295385,15.6946286 C14.9756923,16.0612571 14.5206154,16.4653714 14.3452308,16.7771429 L17.3184615,24.4534857 C18.1575385,24.1590857 19.0593846,24 19.9981538,24 C20.9378462,24 21.8406154,24.16 22.6796923,24.4534857 L25.6556923,16.7835429 C25.2135385,15.9597714 23.0433846,14.944 19.9981538,14.944 L19.9981538,14.944 Z M20,2.28571429 C18.6310769,2.28571429 17.2224615,3.51908571 16.1369231,5.6704 C15.0190769,7.8848 14.3581538,10.7830857 14.2473846,13.9145143 C15.6901538,13.1254857 17.7070769,12.6582857 19.9981538,12.6582857 C22.2929231,12.6582857 24.3107692,13.1254857 25.7526154,13.9145143 C25.6418462,10.7830857 24.9809231,7.8848 23.8630769,5.6704 C22.7775385,3.51908571 21.3689231,2.28571429 20,2.28571429 L20,2.28571429 Z M35,14.8571429 C35,15.8198857 34.9058462,16.7817143 34.7212308,17.7188571 C34.7203077,17.7197714 34.7203077,17.7206857 34.7203077,17.7216 C34.7212308,17.7225143 34.7203077,17.7234286 34.7203077,17.7243429 C34.6926154,17.9328 34.6076923,18.1312 34.4729231,18.2957714 L26.8049231,27.6982857 C27.6089231,28.9408 28.0750769,30.4173714 28.0750769,32 C28.0750769,36.4114286 24.4510769,40 19.9981538,40 C15.5443077,40 11.9212308,36.4114286 11.9212308,32 C11.9212308,30.4164571 12.3873846,28.9398857 13.1913846,27.6964571 L5.52892308,18.2857143 C5.41446154,18.1449143 5.336,17.9803429 5.29815385,17.8057143 L5.29538462,17.8057143 C5.09969231,16.8411429 5,15.8491429 5,14.8571429 C5,6.7008 11.6710769,0.0576 19.892,0.000914285714 C19.928,0 19.964,0 20,0 C20.036,0 20.072,0 20.108,0.000914285714 C28.3289231,0.0576 35,6.7008 35,14.8571429 L35,14.8571429 Z M18.1417538,34.1310171 L18.1417538,29.8689829 C18.1417538,29.43808 18.6202769,29.1754057 18.9892308,29.4037029 L22.4315692,31.5348114 C22.7786462,31.7496686 22.7786462,32.2503314 22.4315692,32.4651886 L18.9892308,34.5962057 C18.6202769,34.8245943 18.1417538,34.5618286 18.1417538,34.1310171 L18.1417538,34.1310171 Z" id="Fill-1" fill="#FFBC42"></path>
    </g>
</svg>