<?xml version="1.0" encoding="UTF-8"?>
<svg width="434px" height="520px" viewBox="0 0 434 520" version="1.1" xmlns="http://www.w3.org/2000/svg" xmlns:xlink="http://www.w3.org/1999/xlink">
    <!-- Generator: Sketch 64 (93537) - https://sketch.com -->
    <title>Group</title>
    <desc>Created with Sketch.</desc>
    <g id="Symbols" stroke="none" stroke-width="1" fill="none" fill-rule="evenodd">
        <g id="Sign-off/Still-looking/Desktop" transform="translate(-839.000000, -218.000000)">
            <g id="Group" transform="translate(839.000000, 218.000000)">
                <path d="M332.6725,392.264514 C294.513918,415.514906 165.593539,433.133293 80.7552936,373.78413 C7.54389755,322.568607 -3.05400367,238.741657 0.634281426,173.417793 C4.55502857,103.976754 57.5971962,47.0695078 124.736541,17.1580016 C190.648556,-12.2067122 357.361531,-8.29407548 399.941616,63.8366683 C461.54741,168.197 439.841564,326.943463 332.6725,392.264514 Z" id="Path" fill="#006CF9" fill-rule="nonzero" transform="translate(217.000000, 207.000000) scale(-1, 1) rotate(-180.000000) translate(-217.000000, -207.000000) "></path>
                <rect id="Rectangle" fill="#FFBC42" transform="translate(164.487537, 375.399727) rotate(-345.000000) translate(-164.487537, -375.399727) " x="148.487537" y="256.399727" width="32" height="238"></rect>
                <rect id="Rectangle" fill="#FFFFFF" transform="translate(153.329943, 417.962210) rotate(-345.000000) translate(-153.329943, -417.962210) " x="125.329943" y="317.96221" width="56" height="200" rx="12"></rect>
                <circle id="Oval" stroke="#FFFFFF" stroke-width="32" transform="translate(218.000000, 176.000000) rotate(-360.000000) translate(-218.000000, -176.000000) " cx="218" cy="176" r="100"></circle>
            </g>
        </g>
    </g>
</svg>