<svg width="64" height="64" xmlns="http://www.w3.org/2000/svg"><path d="M50 0a4 4 0 014 4v22.667h-2.667V4c0-.736-.597-1.333-1.333-1.333H19.333v6.666a4 4 0 01-4 4H8.667V60c0 .736.597 1.333 1.333 1.333h29.333V64H10a4 4 0 01-4-4V12c0-.354.14-.693.39-.943L17.058.391C17.307.14 17.647 0 18 0zM39.396 35.69A12 12 0 0162 41.333a11.961 11.961 0 01-4 8.919v12.415a1.333 1.333 0 01-2.167 1.041L50 59.041l-5.833 4.667A1.333 1.333 0 0142 62.667V50.252a12 12 0 01-2.604-14.562zm15.937 16.377a11.867 11.867 0 01-10.666 0v7.825l4.5-3.6c.487-.39 1.18-.39 1.666 0l4.5 3.6zm-16-.067v2.667H12.667V52h26.666zM50 32a9.333 9.333 0 00-9.333 9.333A9.344 9.344 0 0050 50.667 9.333 9.333 0 0050 32zM35.333 45.333V48H12.667v-2.667h22.666zm17.724-7.609l1.886 1.885-5.334 5.334a1.333 1.333 0 01-1.885 0l-2.667-2.667 1.886-1.885 1.724 1.724 4.39-4.391zm-17.724.943v2.666H18v-2.666h17.333zm-20 0v2.666h-2.666v-2.666h2.666zM29.46 13.448a1.333 1.333 0 011.082 0l12 5.333c.482.214.792.692.792 1.219v8h-2.666v-5.948L38 23.236v7.43a4 4 0 01-4 4h-8a4 4 0 01-4-4v-7.43l-4.541-2.017a1.333 1.333 0 010-2.438zm5.874 10.973l-4.792 2.134a1.333 1.333 0 01-1.082 0l-4.792-2.134v6.246c0 .736.597 1.333 1.333 1.333h8c.736 0 1.333-.597 1.333-1.333V24.42zM30 16.125L21.283 20 30 23.875 38.717 20 30 16.125zM44.667 5.333a4 4 0 014 4V12H46V9.333C46 8.597 45.403 8 44.667 8H42V5.333zm-28-.781l-6.115 6.115h4.781c.737 0 1.334-.597 1.334-1.334V4.552zm22.666.781V8h-2.666V5.333h2.666z" fill="#006CF9" fill-rule="nonzero"/></svg>