<?xml version="1.0" encoding="UTF-8"?>
<svg width="64px" height="64px" viewBox="0 0 64 64" version="1.1" xmlns="http://www.w3.org/2000/svg" xmlns:xlink="http://www.w3.org/1999/xlink">
    <title>Icon/Big/certificate</title>
    <g id="Icon/Big/certificate" stroke="none" stroke-width="1" fill="none" fill-rule="evenodd">
        <path d="M50,7.10542736e-15 C52.209139,7.10542736e-15 54,1.790861 54,4 L54,4 L54,26.6666667 L51.3333333,26.6666667 L51.3333333,4 C51.3333333,3.26362033 50.7363797,2.66666667 50,2.66666667 L50,2.66666667 L19.3333333,2.66666667 L19.3333333,9.33333333 C19.3333333,11.5424723 17.5424723,13.3333333 15.3333333,13.3333333 L15.3333333,13.3333333 L8.66666667,13.3333333 L8.66666667,60 C8.66666667,60.7363797 9.26362033,61.3333333 10,61.3333333 L10,61.3333333 L39.3333333,61.3333333 L39.3333333,64 L10,64 C7.790861,64 6,62.209139 6,60 L6,60 L6,12 C6,11.6464069 6.14060083,11.3073236 6.39066667,11.0573333 L6.39066667,11.0573333 L17.0573333,0.390666667 C17.3073236,0.140600834 17.6464069,7.10542736e-15 18,7.10542736e-15 L18,7.10542736e-15 Z M39.3962486,35.6899345 C41.9792068,30.8145333 47.5537591,28.3286546 52.9067999,29.6651294 C58.2598406,31.0016042 62.0117616,35.8159905 62.0000276,41.3333333 C61.9976363,44.7402096 60.5426157,47.9844205 58,50.252 L58,50.252 L58,62.6666667 C58.0001924,63.1793912 57.7063645,63.6468062 57.2442425,63.8689092 C56.7821205,64.0910121 56.2335788,64.0284529 55.8333333,63.708 L55.8333333,63.708 L50,59.0413333 L44.1666667,63.708 C43.7664212,64.0284529 43.2178795,64.0910121 42.7557575,63.8689092 C42.2936355,63.6468062 41.9998076,63.1793912 42,62.6666667 L42,62.6666667 L42,50.252 C37.8876173,46.5737506 36.8132905,40.5653358 39.3962486,35.6899345 Z M55.3333333,52.0666667 C51.9781342,53.754717 48.0218658,53.754717 44.6666667,52.0666667 L44.6666667,52.0666667 L44.6666667,59.892 L49.1666667,56.292 C49.6537771,55.9019996 50.3462229,55.9019996 50.8333333,56.292 L50.8333333,56.292 L55.3333333,59.892 Z M39.3333333,52 L39.3333333,54.6666667 L12.6666667,54.6666667 L12.6666667,52 L39.3333333,52 Z M50,32 C44.8453423,32 40.6666667,36.1786757 40.6666667,41.3333333 C40.6725448,46.4855542 44.8477791,50.6607885 50,50.6666667 C55.1546577,50.6666667 59.3333333,46.487991 59.3333333,41.3333333 C59.3333333,36.1786757 55.1546577,32 50,32 Z M35.3333333,45.3333333 L35.3333333,48 L12.6666667,48 L12.6666667,45.3333333 L35.3333333,45.3333333 Z M53.0573333,37.724 L54.9426667,39.6093333 L49.6093333,44.9426667 C49.359343,45.1927325 49.0202598,45.3333333 48.6666667,45.3333333 C48.3130736,45.3333333 47.9739903,45.1927325 47.724,44.9426667 L47.724,44.9426667 L45.0573333,42.276 L46.9426667,40.3906667 L48.6666667,42.1146667 L53.0573333,37.724 Z M35.3333333,38.6666667 L35.3333333,41.3333333 L18,41.3333333 L18,38.6666667 L35.3333333,38.6666667 Z M15.3333333,38.6666667 L15.3333333,41.3333333 L12.6666667,41.3333333 L12.6666667,38.6666667 L15.3333333,38.6666667 Z M29.4586667,13.448 C29.8033151,13.2948855 30.1966849,13.2948855 30.5413333,13.448 L30.5413333,13.448 L42.5413333,18.7813333 C43.0229928,18.9953168 43.3333333,19.4729471 43.3333333,20 L43.3333333,20 L43.3333333,28 L40.6666667,28 L40.6666667,22.052 L38,23.236 L38,30.6666667 C38,32.8758057 36.209139,34.6666667 34,34.6666667 L34,34.6666667 L26,34.6666667 C23.790861,34.6666667 22,32.8758057 22,30.6666667 L22,30.6666667 L22,23.236 L17.4586667,21.2186667 C16.9768582,21.0047974 16.6662856,20.5271428 16.6662856,20 C16.6662856,19.4728572 16.9768582,18.9952026 17.4586667,18.7813333 L17.4586667,18.7813333 Z M35.3333333,24.4213333 L30.5413333,26.5546667 C30.1966849,26.7077812 29.8033151,26.7077812 29.4586667,26.5546667 L29.4586667,26.5546667 L24.6666667,24.4213333 L24.6666667,30.6666667 C24.6666667,31.4030463 25.2636203,32 26,32 L26,32 L34,32 C34.7363797,32 35.3333333,31.4030463 35.3333333,30.6666667 L35.3333333,30.6666667 L35.3333333,24.4213333 Z M30,16.1253333 L21.2826667,20 L30,23.8746667 L38.7173333,20 L30,16.1253333 Z M44.6666667,5.33333333 C46.8758057,5.33333333 48.6666667,7.12419433 48.6666667,9.33333333 L48.6666667,9.33333333 L48.6666667,12 L46,12 L46,9.33333333 C46,8.59695367 45.4030463,8 44.6666667,8 L44.6666667,8 L42,8 L42,5.33333333 Z M16.6666667,4.552 L10.552,10.6666667 L15.3333333,10.6666667 C16.069713,10.6666667 16.6666667,10.069713 16.6666667,9.33333333 L16.6666667,9.33333333 L16.6666667,4.552 Z M39.3333333,5.33333333 L39.3333333,8 L36.6666667,8 L36.6666667,5.33333333 L39.3333333,5.33333333 Z" id="Combined-Shape" fill="#006CF9" fill-rule="nonzero"></path>
    </g>
</svg>