<?xml version="1.0" encoding="UTF-8"?>
<svg width="64px" height="64px" viewBox="0 0 64 64" version="1.1" xmlns="http://www.w3.org/2000/svg" xmlns:xlink="http://www.w3.org/1999/xlink">
    <!-- Generator: Sketch 64 (93537) - https://sketch.com -->
    <title>Icon/Big/diary</title>
    <desc>Created with Sketch.</desc>
    <g id="Icon/Big/diary" stroke="none" stroke-width="1" fill="none" fill-rule="evenodd">
        <path d="M57.7255489,-3.55271368e-13 L57.7255489,50.8423154 L54.787,50.842 L54.787,61.317 L57.6616766,61.3173653 L57.6616766,64 L14.4840319,64 C10.1209738,64 6.63137213,60.5911957 6.50362387,56.2619841 L6.5,56.0159681 L6.5,7.72854291 C6.5,3.49086369 9.7857473,0.126640856 13.989623,0.00349326089 L14.2285429,-3.55271368e-13 L57.7255489,-3.55271368e-13 Z M52.104,50.842 L14.4840319,50.8423154 C11.5360822,50.8423154 9.18263473,53.1643835 9.18263473,56.0159681 C9.18263473,58.909203 11.4102413,61.2056962 14.2734199,61.3134129 L14.4840319,61.3173653 L52.104,61.317 L52.104,50.842 Z M55.0422754,2.68263473 L46.543,2.682 L46.4769657,25.7460968 L37.4777246,20.045988 L28.4720559,25.750572 L28.472,2.682 L14.2285429,2.68263473 C11.4633872,2.68263473 9.29351866,4.78337434 9.18675346,7.51703751 L9.18263473,7.72854291 L9.18263473,50.1365269 L9.33505532,50.006599 C10.6656183,48.9020273 12.3699953,48.2183364 14.2392925,48.1632798 L14.4840319,48.1596806 L55.0422754,48.1590419 L55.0422754,2.68263473 Z M43.861,2.682 L31.154,2.682 L31.1543713,20.8756886 L37.4780439,16.8713841 L43.8077844,20.880479 L43.861,2.682 Z" id="Combined-Shape" fill="#006CF9" fill-rule="nonzero"></path>
    </g>
</svg>