<?xml version="1.0" encoding="UTF-8"?>
<svg width="64px" height="64px" viewBox="0 0 64 64" version="1.1" xmlns="http://www.w3.org/2000/svg" xmlns:xlink="http://www.w3.org/1999/xlink">
    <title>Icon/Big/find-online</title>
    <g id="Icon/Big/find-online" stroke="none" stroke-width="1" fill="none" fill-rule="evenodd">
        <path d="M60,3 C62.209139,3 64,4.790861 64,7 L64,45.6666667 L61.3333333,45.6666667 L61.333,41.666 L56,41.6666667 L56,39 L61.333,39 L61.3333333,7 C61.3333333,6.26362033 60.7363797,5.66666667 60,5.66666667 L4,5.66666667 C3.26362033,5.66666667 2.66666667,6.26362033 2.66666667,7 L2.66666667,47 C2.66666667,47.7363797 3.26362033,48.3333333 4,48.3333333 L44,48.3333333 L44,51 L41.333,51 L41.3333333,56.3333333 C41.2874303,57.0536714 41.5536071,57.758948 42.0639962,58.2693371 C42.5743853,58.7797262 43.2796619,59.0459031 44,59 L44,59 L46.6666667,59 L46.6666667,61.6666667 L44,61.6666667 C43.9034371,61.6695172 43.807084,61.6696637 43.7110417,61.6671465 L20.2889583,61.6671465 C20.192916,61.6696637 20.0965629,61.6695172 20,61.6666667 L17.3333333,61.6666667 L17.3333333,59 L20,59 L20,59 L20.039,59 L20.2739869,59.0026561 C20.8968882,58.9746698 21.4909682,58.715342 21.9364884,58.2698218 C22.4469804,57.7593298 22.7130138,57.0537888 22.6666667,56.3333333 L22.666,51 L4,51 C1.790861,51 0,49.209139 0,47 L0,7 C0,4.790861 1.790861,3 4,3 L60,3 Z M38.666,51 L25.333,51 L25.3333333,56.3333333 C25.3610916,57.2736698 25.1324372,58.1941104 24.684393,59.0014054 L39.315607,59.0014054 C38.8675628,58.1941104 38.6389084,57.2736698 38.6666667,56.3333333 L38.666,51 Z M32,8.33333333 C42.3093153,8.33333333 50.6666667,16.6906847 50.6666667,27 C50.6616684,31.6725416 48.9419577,35.943364 46.1028928,39.217109 L49.622,42.736 L51.6346667,40.724 C52.1553331,40.2034907 52.9993335,40.2034907 53.52,40.724 L62.3853333,49.5893333 C64.5333315,51.7441285 64.5333315,55.2305381 62.3853333,57.3853333 C61.3536648,58.4227682 59.9497434,59.0042145 58.4866667,59.0000228 C57.0240518,59.003858 55.6206765,58.4224391 54.5893333,57.3853333 L45.724,48.52 C45.2034907,47.9993335 45.2034907,47.1553331 45.724,46.6346667 L47.736,44.621 L44.217109,41.1028928 C41.0218408,43.8739009 36.8767252,45.5785769 32.3353236,45.6633594 L32,45.6666667 C21.6906847,45.6666667 13.3333333,37.3093153 13.3333333,27 C13.3333333,16.6906847 21.6906847,8.33333333 32,8.33333333 Z M56.518,47.492 L52.492,51.518 L56.4746667,55.5 C57.601006,56.5753055 59.3736606,56.5753055 60.5,55.5 C61.609182,54.3874488 61.609182,52.5872178 60.5,51.4746667 L56.518,47.492 Z M52.5773333,43.552 L48.552,47.5773333 L50.606,49.632 L54.632,45.607 L52.5773333,43.552 Z M32,11 C23.163444,11 16,18.163444 16,27 C16,35.836556 23.163444,43 32,43 C40.836556,43 48,35.836556 48,27 C47.9904469,18.1674041 40.8325959,11.0095531 32,11 Z M16,39 L16,41.6666667 L6.66666667,41.6666667 L6.66666667,39 L16,39 Z M8,17.6666667 L8,20.3333333 L5.33333333,20.3333333 L5.33333333,17.6666667 L8,17.6666667 Z M58.6666667,17.6666667 L58.6666667,20.3333333 L56,20.3333333 L56,17.6666667 L58.6666667,17.6666667 Z M12,8.33333333 L12,11 L9.33333333,11 C8.59695367,11 8,11.5969537 8,12.3333333 L8,15 L5.33333333,15 L5.33333333,12.3333333 C5.33333333,10.1241943 7.12419433,8.33333333 9.33333333,8.33333333 L12,8.33333333 Z M54.6666667,8.33333333 C56.8758057,8.33333333 58.6666667,10.1241943 58.6666667,12.3333333 L58.6666667,15 L56,15 L56,12.3333333 C56,11.5969537 55.4030463,11 54.6666667,11 L52,11 L52,8.33333333 L54.6666667,8.33333333 Z" id="Combined-Shape" fill="#006CF9" fill-rule="nonzero"></path>
        <path d="M43,29.6499652 L43,22.7500638 C43,22.2954871 42.7323351,21.8835369 42.3169098,21.6989788 L31.9670577,17.0990445 C31.6698027,16.9669852 31.330526,16.9669852 31.033271,17.0990445 L20.6834189,21.6989788 C20.267865,21.8834384 20,22.2954097 20,22.7500638 C20,23.2047179 20.267865,23.6166891 20.6834189,23.8011488 L24.6002629,25.5410739 L24.6002629,31.9499323 C24.6002629,33.8552875 26.1448585,35.399883 28.0502136,35.399883 L34.950115,35.399883 C36.8554702,35.399883 38.4000657,33.8552875 38.4000657,31.9499323 L38.4000657,25.5410739 L40.7000329,24.5198885 L40.7000329,29.6499652 L43,29.6499652 Z M36.1000986,31.9499323 C36.1000986,32.5850507 35.5852334,33.0999159 34.950115,33.0999159 L28.0502136,33.0999159 C27.4150953,33.0999159 26.9002301,32.5850507 26.9002301,31.9499323 L26.9002301,26.5634093 L31.033271,28.403383 C31.330526,28.5354424 31.6698027,28.5354424 31.9670577,28.403383 L36.1000986,26.5634093 L36.1000986,31.9499323 Z M31.5001643,26.091916 L23.9815718,22.7500638 L31.5001643,19.4082115 L39.0187569,22.7500638 L31.5001643,26.091916 Z" id="Shape" fill="#006CF9" fill-rule="nonzero"></path>
    </g>
</svg>