<svg width="64" height="64" xmlns="http://www.w3.org/2000/svg"><g fill="#006CF9" fill-rule="nonzero"><path d="M60 3a4 4 0 014 4v38.667h-2.667v-4.001H56V39h5.333V7c0-.736-.597-1.333-1.333-1.333H4c-.736 0-1.333.597-1.333 1.333v40c0 .736.597 1.333 1.333 1.333h40V51h-2.667v5.333A2.512 2.512 0 0044 59h2.667v2.667H44a5.187 5.187 0 01-.289 0H20.289a5.187 5.187 0 01-.289 0h-2.667V59h2.706l.235.003a2.51 2.51 0 002.393-2.67L22.666 51H4a4 4 0 01-4-4V7a4 4 0 014-4h56zM38.666 51H25.333v5.333c.028.94-.2 1.861-.649 2.668h14.632a5.182 5.182 0 01-.65-2.668V51zM32 8.333c10.31 0 18.667 8.358 18.667 18.667a18.615 18.615 0 01-4.564 12.217l3.519 3.519 2.013-2.012c.52-.52 1.364-.52 1.885 0l8.865 8.865a5.521 5.521 0 010 7.796A5.476 5.476 0 0158.487 59a5.476 5.476 0 01-3.898-1.615l-8.865-8.865a1.333 1.333 0 010-1.885l2.012-2.014-3.519-3.518a18.612 18.612 0 01-11.882 4.56l-.335.004c-10.31 0-18.667-8.358-18.667-18.667 0-10.31 8.358-18.667 18.667-18.667zm24.518 39.159l-4.026 4.026 3.983 3.982a2.915 2.915 0 004.025 0 2.85 2.85 0 000-4.025l-3.982-3.983zm-3.94-3.94l-4.026 4.025 2.054 2.055 4.026-4.025-2.055-2.055zM32 11c-8.837 0-16 7.163-16 16s7.163 16 16 16 16-7.163 16-16c-.01-8.833-7.167-15.99-16-16zM16 39v2.667H6.667V39H16zM8 17.667v2.666H5.333v-2.666H8zm50.667 0v2.666H56v-2.666h2.667zM12 8.333V11H9.333C8.597 11 8 11.597 8 12.333V15H5.333v-2.667a4 4 0 014-4H12zm42.667 0a4 4 0 014 4V15H56v-2.667c0-.736-.597-1.333-1.333-1.333H52V8.333h2.667z"/><path d="M43 29.65v-6.9a1.15 1.15 0 00-.683-1.051l-10.35-4.6a1.15 1.15 0 00-.934 0l-10.35 4.6a1.15 1.15 0 000 2.102l3.917 1.74v6.409a3.45 3.45 0 003.45 3.45h6.9a3.45 3.45 0 003.45-3.45V25.54l2.3-1.021v5.13H43zm-6.9 2.3a1.15 1.15 0 01-1.15 1.15h-6.9a1.15 1.15 0 01-1.15-1.15v-5.387l4.133 1.84c.298.132.637.132.934 0l4.133-1.84v5.387zm-4.6-5.858l-7.518-3.342 7.518-3.342 7.519 3.342-7.519 3.342z"/></g></svg>