<svg width="64" height="64" xmlns="http://www.w3.org/2000/svg"><path d="M9.333 9.333V12H4c-.736 0-1.333.597-1.333 1.333V44h58.666V13.333c0-.736-.597-1.333-1.333-1.333h-5.333V9.333H60a4 4 0 014 4v37.334a4 4 0 01-4 4H41.333v4A2.51 2.51 0 0044 61.333h2.667V64H17.333v-2.667h2.656a2.512 2.512 0 002.678-2.666v-4H4a4 4 0 01-4-4V13.333a4 4 0 014-4h5.333zm29.334 45.334H25.333v4a5.44 5.44 0 01-.649 2.666h14.632a5.44 5.44 0 01-.65-2.666v-4zm22.666-8H2.667v4C2.667 51.403 3.264 52 4 52h56c.736 0 1.333-.597 1.333-1.333v-4zM8 34.667v2.666c0 .737.597 1.334 1.333 1.334H12v2.666H9.333a4 4 0 01-4-4v-2.666H8zm50.667 0v2.666a4 4 0 01-4 4H52v-2.666h2.667c.736 0 1.333-.597 1.333-1.334v-2.666h2.667zm-14.667 4v2.666H20v-2.666h24zm0-5.334V36H25.333v-2.667H44zm-21.333 0V36H20v-2.667h2.667zM8 29.333V32H5.333v-2.667H8zm50.667 0V32H56v-2.667h2.667zM31.475.108a1.333 1.333 0 011.05 0l18.667 8c.49.21.808.692.808 1.225v8.243a4 4 0 11-2.667 0v-6.224l-4 1.715v13.6a4 4 0 01-4 4H22.667a4 4 0 01-4-4v-13.6l-5.859-2.508a1.333 1.333 0 010-2.451zm11.192 14.104l-10.142 4.347a1.333 1.333 0 01-1.05 0l-10.142-4.347v12.455c0 .736.597 1.333 1.334 1.333h18.666c.737 0 1.334-.597 1.334-1.333V14.212zm8 5.788a1.333 1.333 0 100 2.667 1.333 1.333 0 000-2.667zM32 2.784l-15.281 6.55L32 15.882l15.281-6.55L32 2.784z" fill="#006CF9" fill-rule="nonzero"/></svg>