<?xml version="1.0" encoding="UTF-8"?>
<svg width="64px" height="64px" viewBox="0 0 64 64" version="1.1" xmlns="http://www.w3.org/2000/svg" xmlns:xlink="http://www.w3.org/1999/xlink">
    <title>Icon/Big/online-training</title>
    <g id="Icon/Big/online-training" stroke="none" stroke-width="1" fill="none" fill-rule="evenodd">
        <path d="M9.33333333,9.33333333 L9.33333333,12 L4,12 C3.26362033,12 2.66666667,12.5969537 2.66666667,13.3333333 L2.66666667,13.3333333 L2.66666667,44 L61.3333333,44 L61.3333333,13.3333333 C61.3333333,12.5969537 60.7363797,12 60,12 L60,12 L54.6666667,12 L54.6666667,9.33333333 L60,9.33333333 C62.209139,9.33333333 64,11.1241943 64,13.3333333 L64,13.3333333 L64,50.6666667 C64,52.8758057 62.209139,54.6666667 60,54.6666667 L60,54.6666667 L41.3333333,54.6666667 L41.3333333,58.6666667 C41.2865411,59.3872395 41.5524308,60.0930456 42.0630259,60.6036407 C42.5736211,61.1142358 43.2794271,61.3801256 44,61.3333333 L44,61.3333333 L46.6666667,61.3333333 L46.6666667,64 L17.3333333,64 L17.3333333,61.3333333 L19.9893333,61.3333333 C20.7114599,61.3824498 21.419679,61.1176957 21.9324999,60.6069179 C22.4453208,60.0961401 22.7129,59.3889836 22.6666667,58.6666667 L22.6666667,58.6666667 L22.6666667,54.6666667 L4,54.6666667 C1.790861,54.6666667 0,52.8758057 0,50.6666667 L0,50.6666667 L0,13.3333333 C0,11.1241943 1.790861,9.33333333 4,9.33333333 L4,9.33333333 L9.33333333,9.33333333 Z M38.6666667,54.6666667 L25.3333333,54.6666667 L25.3333333,58.6666667 C25.3483626,59.5964434 25.1248032,60.5145518 24.684,61.3333333 L24.684,61.3333333 L39.316,61.3333333 C38.8751968,60.5145518 38.6516374,59.5964434 38.6666667,58.6666667 L38.6666667,58.6666667 L38.6666667,54.6666667 Z M61.3333333,46.6666667 L2.66666667,46.6666667 L2.66666667,50.6666667 C2.66666667,51.4030463 3.26362033,52 4,52 L4,52 L60,52 C60.7363797,52 61.3333333,51.4030463 61.3333333,50.6666667 L61.3333333,50.6666667 L61.3333333,46.6666667 Z M8,34.6666667 L8,37.3333333 C8,38.069713 8.59695367,38.6666667 9.33333333,38.6666667 L9.33333333,38.6666667 L12,38.6666667 L12,41.3333333 L9.33333333,41.3333333 C7.12419433,41.3333333 5.33333333,39.5424723 5.33333333,37.3333333 L5.33333333,37.3333333 L5.33333333,34.6666667 L8,34.6666667 Z M58.6666667,34.6666667 L58.6666667,37.3333333 C58.6666667,39.5424723 56.8758057,41.3333333 54.6666667,41.3333333 L54.6666667,41.3333333 L52,41.3333333 L52,38.6666667 L54.6666667,38.6666667 C55.4030463,38.6666667 56,38.069713 56,37.3333333 L56,37.3333333 L56,34.6666667 L58.6666667,34.6666667 Z M44,38.6666667 L44,41.3333333 L20,41.3333333 L20,38.6666667 L44,38.6666667 Z M44,33.3333333 L44,36 L25.3333333,36 L25.3333333,33.3333333 L44,33.3333333 Z M22.6666667,33.3333333 L22.6666667,36 L20,36 L20,33.3333333 L22.6666667,33.3333333 Z M8,29.3333333 L8,32 L5.33333333,32 L5.33333333,29.3333333 L8,29.3333333 Z M58.6666667,29.3333333 L58.6666667,32 L56,32 L56,29.3333333 L58.6666667,29.3333333 Z M31.4746667,0.108 C31.8101272,-0.0358036631 32.1898728,-0.0358036631 32.5253333,0.108 L32.5253333,0.108 L51.192,8.108 C51.6821384,8.31811026 51.9999411,8.80005856 52,9.33333333 L52,9.33333333 L52,17.576 C53.8367289,18.2253817 54.9384961,20.103555 54.6090609,22.0236441 C54.2796257,23.9437332 52.6148119,25.3472362 50.6666667,25.3472362 C48.7185215,25.3472362 47.0537076,23.9437332 46.7242724,22.0236441 C46.3948372,20.103555 47.4966044,18.2253817 49.3333333,17.576 L49.3333333,17.576 L49.3333333,11.352 L45.3333333,13.0666667 L45.3333333,26.6666667 C45.3333333,28.8758057 43.5424723,30.6666667 41.3333333,30.6666667 L41.3333333,30.6666667 L22.6666667,30.6666667 C20.4575277,30.6666667 18.6666667,28.8758057 18.6666667,26.6666667 L18.6666667,26.6666667 L18.6666667,13.0666667 L12.808,10.5586667 C12.3179961,10.3484515 12.0003434,9.86652587 12.0003434,9.33333333 C12.0003434,8.8001408 12.3179961,8.31821517 12.808,8.108 L12.808,8.108 Z M42.6666667,14.212 L32.5253333,18.5586667 C32.1898728,18.7024703 31.8101272,18.7024703 31.4746667,18.5586667 L31.4746667,18.5586667 L21.3333333,14.212 L21.3333333,26.6666667 C21.3333333,27.4030463 21.930287,28 22.6666667,28 L22.6666667,28 L41.3333333,28 C42.069713,28 42.6666667,27.4030463 42.6666667,26.6666667 L42.6666667,26.6666667 L42.6666667,14.212 Z M50.6666667,20 C49.930287,20 49.3333333,20.5969537 49.3333333,21.3333333 C49.3333333,22.069713 49.930287,22.6666667 50.6666667,22.6666667 C51.4030463,22.6666667 52,22.069713 52,21.3333333 C52,20.5969537 51.4030463,20 50.6666667,20 Z M32,2.784 L16.7186667,9.33333333 L32,15.8826667 L47.2813333,9.33333333 L32,2.784 Z" id="Combined-Shape" fill="#006CF9" fill-rule="nonzero"></path>
    </g>
</svg>