<?xml version="1.0" encoding="UTF-8"?>
<svg width="64px" height="64px" viewBox="0 0 64 64" version="1.1" xmlns="http://www.w3.org/2000/svg" xmlns:xlink="http://www.w3.org/1999/xlink">
    <title>Icon/Big/phone</title>
    <g id="Icon/Big/phone" stroke="none" stroke-width="1" fill="none" fill-rule="evenodd">
        <path d="M45.2984212,6 C47.7073568,6 49.6666667,7.95983883 49.6666667,10.3687744 L49.6666667,53.6306965 C49.6666667,56.0401612 47.7073568,58 45.2984212,58 L19.3693034,58 C16.9603678,58 15,56.0401612 15,53.6306966 L15,10.3687744 C15,7.95983883 16.9603678,6 19.3693034,6 L45.2984212,6 Z M47.5,49.333 L17.166,49.333 L17.1666667,53.6306965 C17.1666667,54.8452148 18.1547852,55.8333333 19.3693034,55.8333333 L45.2984212,55.8333333 C46.5118815,55.8333333 47.5,54.8452148 47.5,53.6306966 L47.5,49.333 Z M35.5843913,51.5 L35.5843913,53.6666667 L29.0843913,53.6666667 L29.0843913,51.5 L35.5843913,51.5 Z M47.5,16.833 L17.166,16.833 L17.166,47.166 L47.5,47.166 L47.5,16.833 Z M45.2984212,8.16666667 L19.3693034,8.16666667 C18.1547852,8.16666667 17.1666667,9.15478518 17.1666667,10.3687744 L17.166,14.666 L47.5,14.666 L47.5,10.3687744 C47.5,9.15478518 46.5118815,8.16666667 45.2984212,8.16666667 Z" id="Combined-Shape" fill="#006CF9" fill-rule="nonzero"></path>
    </g>
</svg>