<?xml version="1.0" encoding="UTF-8"?>
<svg width="64px" height="64px" viewBox="0 0 64 64" version="1.1" xmlns="http://www.w3.org/2000/svg" xmlns:xlink="http://www.w3.org/1999/xlink">
    <!-- Generator: Sketch 64 (93537) - https://sketch.com -->
    <title>Icon/Big/request</title>
    <desc>Created with Sketch.</desc>
    <g id="Icon/Big/request" stroke="none" stroke-width="1" fill="none" fill-rule="evenodd">
        <path d="M32.7179276,0.208242284 L32.8338405,0.29067836 L40.864,6.664 L54.6607654,6.66493101 C55.3579787,6.66493101 55.9309471,7.19688682 55.9959426,7.87707056 L56.0020828,8.00624837 L56.002,18.444 L63.0096691,23.9068419 C63.0237138,23.9106395 63.0376672,23.9146595 63.0515252,23.9188979 C63.0738857,23.9259823 63.0955703,23.9332209 63.1170805,23.9410186 C63.133209,23.9466856 63.1494656,23.952958 63.1655658,23.9595343 C63.1875055,23.9685962 63.2091843,23.9780957 63.2306331,23.9881839 C63.2504,23.9974945 63.2697235,24.0072037 63.2887732,24.017359 C63.3029305,24.0247933 63.3173568,24.0327966 63.331653,24.0410799 C63.3562003,24.0555135 63.3798928,24.0703047 63.4030753,24.0857991 C63.414081,24.0928743 63.4251129,24.1004748 63.4360469,24.1082548 C63.4571988,24.123623 63.477861,24.1392632 63.4980441,24.1554753 C63.5148757,24.1686745 63.5315417,24.1827433 63.547914,24.1972707 C63.5607925,24.20897 63.5735065,24.2206791 63.58599,24.2326271 C63.6053994,24.2510219 63.6240855,24.2700429 63.6422926,24.2897218 C63.6545958,24.303081 63.6666093,24.316566 63.6783506,24.3302907 C63.6899391,24.3438712 63.7014608,24.3579225 63.7127487,24.3722662 L63.7195214,24.3808416 C63.7335634,24.3989608 63.7471514,24.4174495 63.7602684,24.4362905 L63.7127487,24.3722662 C63.7833915,24.4620334 63.8407506,24.5580104 63.8851083,24.6578273 C63.8932631,24.6761398 63.9011268,24.6949814 63.9085675,24.7140349 C63.9096999,24.7169474 63.9108703,24.7199753 63.9120291,24.7230061 L63.9464247,24.8252213 C63.9476737,24.8294996 63.9489018,24.8337867 63.9501092,24.8380825 C63.9546436,24.8542011 63.9587324,24.869858 63.9625308,24.8855623 C63.9684999,24.9102873 63.9739033,24.9358417 63.9785682,24.9616529 C63.982574,24.9835851 63.9859793,25.0055089 63.9888366,25.0274765 C63.9907051,25.0423011 63.992409,25.0574099 63.9938598,25.0725926 L63.9949999,25.0843004 C63.9967649,25.1045959 63.9980666,25.1249131 63.9989069,25.1452351 L64,25.2017704 L64,62.6586826 L63.9988691,62.7162054 C63.9980961,62.734577 63.9969459,62.7529446 63.9954171,62.7712958 L64,62.6586826 C64,62.7154004 63.9964797,62.7712959 63.9896456,62.8261627 C63.9866961,62.8503802 63.9829117,62.8751357 63.9784254,62.8998083 C63.9737966,62.9250911 63.9684937,62.9501487 63.9625022,62.9749376 C63.9592023,62.9886576 63.9556728,63.0022984 63.9519222,63.0158981 C63.9431154,63.0478407 63.9330601,63.0796083 63.9218794,63.1108405 C63.9185126,63.1202337 63.9150747,63.1295053 63.911529,63.1387492 C63.9019658,63.1637189 63.8915851,63.1885197 63.8804945,63.2129296 C63.8727763,63.2298625 63.8646756,63.246736 63.8561944,63.2634839 C63.818584,63.3379204 63.7740301,63.4085936 63.7235052,63.4744451 C63.7207584,63.4779194 63.7180025,63.4814791 63.7152258,63.4850293 L63.6775028,63.5311523 C63.6653872,63.5452869 63.6529827,63.5591665 63.6402982,63.5727818 L63.7152258,63.4850293 C63.6753509,63.5360122 63.6325246,63.5833274 63.5871777,63.6269222 C63.5759509,63.6374615 63.5644289,63.6481386 63.5527218,63.6586131 C63.5325156,63.6770141 63.5116095,63.6946175 63.4902749,63.7114972 C63.4773765,63.7213688 63.4646887,63.731039 63.4518262,63.7404853 C63.4321302,63.7552687 63.4114582,63.7695667 63.3904626,63.7832314 C63.3760499,63.7923712 63.3620451,63.8011318 63.3478702,63.8096379 C63.3275077,63.8220184 63.306399,63.8338881 63.2850297,63.8451534 C63.2618252,63.8573499 63.2385585,63.8688011 63.2149241,63.8795863 C63.2051107,63.8839933 63.1950553,63.8884176 63.1849542,63.8927146 C63.1537586,63.9061363 63.1220888,63.9182588 63.0898691,63.9291901 C63.0809762,63.9319759 63.0719236,63.9349334 63.0628441,63.9377934 C63.0370733,63.9461679 63.0111385,63.9534975 62.9848977,63.9600542 C62.9726462,63.9628509 62.960505,63.965706 62.9483295,63.9683915 L62.9135642,63.975814 C62.903413,63.9777668 62.893221,63.9796051 62.8829898,63.9813276 C62.8537184,63.9860692 62.8246458,63.990014 62.7954723,63.9930084 C62.7932564,63.993336 62.7905596,63.9936019 62.7878604,63.9938598 L62.7614137,63.9960686 C62.7310522,63.9984093 62.7006029,63.9997228 62.6701222,64.0000025 L62.6586826,64 L1.34131737,64 L1.32987779,64.0000025 C1.29939706,63.9997228 1.26894776,63.9984093 1.23858626,63.9960686 L1.34131737,64 C1.29497481,64 1.24918118,63.9976498 1.20404915,63.9930621 C1.17535416,63.990014 1.1462816,63.9860692 1.11736042,63.98118 C1.10677898,63.9796051 1.09658704,63.9777668 1.08643583,63.975814 L1.05167047,63.9683915 C1.03949502,63.965706 1.0273538,63.9628509 1.01525066,63.9598268 C0.988861458,63.9534975 0.962926739,63.9461679 0.937323724,63.938091 C0.928076354,63.9349334 0.919023757,63.9319759 0.909999816,63.9289212 C0.87791118,63.9182588 0.846241373,63.9061363 0.815173962,63.8928751 C0.804944669,63.8884176 0.794889299,63.8839933 0.784882256,63.8794421 C0.761441453,63.8688011 0.738174822,63.8573499 0.715300028,63.8452565 C0.693601028,63.8338881 0.672492321,63.8220184 0.651671222,63.8095476 C0.637954917,63.8011318 0.623950141,63.7923712 0.610121804,63.7833625 C0.588541781,63.7695667 0.567869753,63.7552687 0.547550769,63.740341 C0.535311316,63.731039 0.522623493,63.7213688 0.510116058,63.7114805 C0.488390472,63.6946175 0.467484399,63.6770141 0.447043294,63.6586914 C0.435571131,63.6481386 0.424049094,63.6374615 0.412717615,63.6265874 C0.394874436,63.6096678 0.377321421,63.5918306 0.36018996,63.5734138 C0.347017334,63.5591665 0.334612754,63.5452869 0.322497218,63.5311523 C0.30998603,63.5165376 0.297235968,63.5009626 0.284774172,63.4850293 L0.276494822,63.4744451 C0.225969915,63.4085936 0.181416014,63.3379204 0.143642509,63.2632351 C0.1353244,63.246736 0.127223654,63.2298625 0.119501897,63.2128753 C0.108414854,63.1885197 0.0980341995,63.1637189 0.0883899142,63.1385534 C0.0849253191,63.1295053 0.0814873627,63.1202337 0.0781569137,63.1109362 C0.0669399008,63.0796083 0.0568845866,63.0478407 0.0480035456,63.0155864 C0.0443272214,63.0022984 0.0407977198,62.9886576 0.0374885982,62.9749812 C0.0315063218,62.9501487 0.0262034005,62.9250911 0.0216104185,62.8997861 C0.0170883372,62.8751357 0.013303868,62.8503802 0.0102174126,62.8255724 C0.00877088123,62.8134496 0.00736528793,62.8006814 0.00614017359,62.7878604 L0.00475204519,62.7733082 C0.00246121132,62.7463005 0.000990699499,62.7192565 0.000335707808,62.6922154 L0,62.6586826 L0,25.2017704 L0.000292193838,25.1702226 C0.000951837667,25.1412369 0.00254828286,25.1122474 0.00508730032,25.0833023 L0,25.2017704 C0,25.1426317 0.00382724904,25.084387 0.0112475723,25.0272704 C0.0140206848,25.0055089 0.0174259928,24.9835851 0.0213818208,24.9617264 C0.0260967107,24.9358417 0.0315001368,24.9102873 0.0376194362,24.8850126 C0.0412675695,24.869858 0.0453563797,24.8542011 0.0497366329,24.8385994 C0.0510981599,24.8337867 0.0523263383,24.8294996 0.0535752582,24.8252213 L0.0879709136,24.7230061 C0.0891297243,24.7199753 0.0903001041,24.7169474 0.0914820604,24.7139226 C0.0988731902,24.6949814 0.106736942,24.6761398 0.115012248,24.6575216 C0.14881525,24.5814901 0.190342983,24.5073988 0.239601235,24.4366134 C0.252848581,24.4174495 0.266436602,24.3989608 0.280478557,24.3808416 C0.28266376,24.3781203 0.284950507,24.37519 0.287251345,24.3722662 L0.321649404,24.3302907 C0.333390674,24.316566 0.345404216,24.303081 0.357681661,24.2898444 L0.287251345,24.3722662 C0.326694288,24.3221454 0.368992453,24.2755945 0.41373334,24.2326628 C0.426493526,24.2206791 0.439207491,24.20897 0.45214455,24.197507 C0.468458273,24.1827433 0.485124255,24.1686745 0.502065407,24.1550665 C0.522139037,24.1392632 0.542801165,24.123623 0.563917721,24.1085793 C0.574887088,24.1004748 0.585919005,24.0928743 0.597044441,24.0854537 C0.62010723,24.0703047 0.643799673,24.0555135 0.667971492,24.041456 C0.682643228,24.0327966 0.697069501,24.0247933 0.711617302,24.0170708 C0.73027646,24.0072037 0.749600008,23.9974945 0.769183462,23.9882454 C0.790815687,23.9780957 0.812494533,23.9685962 0.834377674,23.9596885 C0.850534388,23.952958 0.866790978,23.9466856 0.883196839,23.9407242 C0.904429678,23.9332209 0.926114306,23.9259823 0.947949858,23.9193058 C0.953891505,23.9172412 0.959322737,23.915618 0.964768301,23.9140283 L1.004,23.904 L7.997,18.571 L7.99791721,8.00624837 C7.99791721,7.30903508 8.52987302,6.73606672 9.21005676,6.67107118 L9.33923457,6.66493101 L23.1,6.664 L31.1683101,0.288975097 C31.6190734,-0.0672732543 32.2413928,-0.0940760154 32.7179276,0.208242284 Z M38.788,45.692 L32.8295041,50.3828866 C32.3802543,50.7364268 31.7614881,50.7636222 31.2861588,50.4644728 L31.1704959,50.3828866 L25.211,45.692 L5.234,61.316 L58.765,61.316 L38.788,45.692 Z M2.682,27.963 L2.682,59.906 L23.04,43.984 L2.682,27.963 Z M61.317,27.963 L40.959,43.984 L61.317,59.906 L61.317,27.963 Z M53.3192814,9.34706587 L10.6797605,9.34706587 L10.68,30.844 L32,47.6215569 L53.319,30.844 L53.3192814,9.34706587 Z M35.2281862,15.8965702 L42.8400356,26.6680552 L35.2281862,37.4395402 L33.0373697,35.8913632 L38.606,28.009 L20.1364228,28.0093726 L20.1364228,25.3267378 L38.606,25.326 L33.0373697,17.4447472 L35.2281862,15.8965702 Z M7.997,21.945 L3.617,25.286 L7.997,28.733 L7.997,21.945 Z M56.002,21.846 L56.002,28.732 L60.398,25.273 L56.002,21.846 Z M31.9980838,3.05245509 L27.428,6.664 L36.549,6.664 L31.9980838,3.05245509 Z" id="Combined-Shape" fill="#006CF9" fill-rule="nonzero"></path>
    </g>
</svg>