<?xml version="1.0" encoding="UTF-8"?>
<svg width="64px" height="59px" viewBox="0 0 64 59" version="1.1" xmlns="http://www.w3.org/2000/svg" xmlns:xlink="http://www.w3.org/1999/xlink">
    <title>Combined Shape</title>
    <g id="Desktop" stroke="none" stroke-width="1" fill="none" fill-rule="evenodd">
        <g id="02-Courses/01-Initial" transform="translate(-688.000000, -800.000000)" fill="#006CF9" fill-rule="nonzero">
            <g id="Group-3" transform="translate(520.000000, 800.000000)">
                <g id="Group-2" transform="translate(168.000000, 0.000000)">
                    <path d="M60,2.55795385e-12 C62.209139,2.55795385e-12 64,1.790861 64,4 L64,42.6666667 L61.3333333,42.6666667 L61.333,38.666 L56,38.6666667 L56,36 L61.333,36 L61.3333333,4 C61.3333333,3.26362033 60.7363797,2.66666667 60,2.66666667 L4,2.66666667 C3.26362033,2.66666667 2.66666667,3.26362033 2.66666667,4 L2.66666667,44 C2.66666667,44.7363797 3.26362033,45.3333333 4,45.3333333 L44,45.3333333 L44,48 L41.333,48 L41.3333333,53.3333333 C41.2874303,54.0536714 41.5536071,54.758948 42.0639962,55.2693371 C42.5279863,55.7333272 43.1530404,55.995489 43.8040527,56.0048325 L44,56 L46.6666667,56 L46.6666667,58.6666667 L44,58.6666667 C43.9034371,58.6695172 43.807084,58.6696637 43.7110417,58.6671465 L20.2889583,58.6671465 C20.192916,58.6696637 20.0965629,58.6695172 20,58.6666667 L17.3333333,58.6666667 L17.3333333,56 L20.039,56 L20.2739869,56.0026561 C20.8968882,55.9746698 21.4909682,55.715342 21.9364884,55.2698218 C22.4469804,54.7593298 22.7130138,54.0537888 22.6666667,53.3333333 L22.666,48 L4,48 C1.790861,48 0,46.209139 0,44 L0,4 C0,1.790861 1.790861,2.55795385e-12 4,2.55795385e-12 L60,2.55795385e-12 Z M38.666,48 L25.333,48 L25.3333333,53.3333333 C25.3610916,54.2736698 25.1324372,55.1941104 24.684393,56.0014054 L39.315607,56.0014054 C38.8675628,55.1941104 38.6389084,54.2736698 38.6666667,53.3333333 L38.666,48 Z M32,5.33333333 C42.3093153,5.33333333 50.6666667,13.6906847 50.6666667,24 C50.6616684,28.6725416 48.9419577,32.943364 46.1028928,36.217109 L49.622,39.736 L51.6346667,37.724 C52.1553331,37.2034907 52.9993335,37.2034907 53.52,37.724 L62.3853333,46.5893333 C64.5333315,48.7441285 64.5333315,52.2305381 62.3853333,54.3853333 C61.3536648,55.4227682 59.9497434,56.0042145 58.4866667,56.0000228 C57.0240518,56.003858 55.6206765,55.4224391 54.5893333,54.3853333 L45.724,45.52 C45.2034907,44.9993335 45.2034907,44.1553331 45.724,43.6346667 L47.736,41.621 L44.217109,38.1028928 C41.0218408,40.8739009 36.8767252,42.5785769 32.3353236,42.6633594 L32,42.6666667 C21.6906847,42.6666667 13.3333333,34.3093153 13.3333333,24 C13.3333333,13.6906847 21.6906847,5.33333333 32,5.33333333 Z M56.518,44.492 L52.492,48.518 L56.4746667,52.5 C57.601006,53.5753055 59.3736606,53.5753055 60.5,52.5 C61.609182,51.3874488 61.609182,49.5872178 60.5,48.4746667 L56.518,44.492 Z M52.5773333,40.552 L48.552,44.5773333 L50.606,46.632 L54.632,42.607 L52.5773333,40.552 Z M32,8 C23.163444,8 16,15.163444 16,24 C16,32.836556 23.163444,40 32,40 C40.836556,40 48,32.836556 48,24 C47.9904469,15.1674041 40.8325959,8.00955313 32,8 Z M16,36 L16,38.6666667 L6.66666667,38.6666667 L6.66666667,36 L16,36 Z M31.5102921,30.3565376 C32.5553905,30.3565376 33.4279039,31.2194629 33.4279039,32.2645613 C33.4279039,33.3288359 32.5553905,34.1821731 31.5102921,34.1821731 C30.4556056,34.1821731 29.5926803,33.3288359 29.5926803,32.2645613 C29.5926803,31.2194629 30.4556056,30.3565376 31.5102921,30.3565376 Z M31.9992831,14.0951894 C35.5181008,14.0951894 37.8767633,16.2045624 37.8767633,19.3206816 C37.8767633,21.4779949 36.8220768,22.9353799 35.1058142,23.9708902 C33.4758442,24.9776364 32.8430323,25.9652065 32.8046801,28.1704601 L32.8046801,28.1704601 L32.8046801,28.3526332 L30.0624952,28.3526332 L30.0624952,28.1704601 C30.0816713,24.6132902 31.1363578,23.5298395 32.9197368,22.4368008 C34.0607158,21.7272844 34.9524053,20.7205382 34.9524053,19.2919174 C34.9524053,17.594831 33.6292531,16.5113803 31.9992831,16.5113803 C30.5323101,16.5113803 29.0845132,17.4030698 28.9694564,19.4357383 L28.9694564,19.4357383 L26.0546865,19.4357383 C26.1793313,15.9840371 28.7681072,14.0951894 31.9992831,14.0951894 Z M8,14.6666667 L8,17.3333333 L5.33333333,17.3333333 L5.33333333,14.6666667 L8,14.6666667 Z M58.6666667,14.6666667 L58.6666667,17.3333333 L56,17.3333333 L56,14.6666667 L58.6666667,14.6666667 Z M12,5.33333333 L12,8 L9.33333333,8 C8.59695367,8 8,8.59695367 8,9.33333333 L8,12 L5.33333333,12 L5.33333333,9.33333333 C5.33333333,7.12419433 7.12419433,5.33333333 9.33333333,5.33333333 L12,5.33333333 Z M54.6666667,5.33333333 C56.8758057,5.33333333 58.6666667,7.12419433 58.6666667,9.33333333 L58.6666667,12 L56,12 L56,9.33333333 C56,8.59695367 55.4030463,8 54.6666667,8 L52,8 L52,5.33333333 L54.6666667,5.33333333 Z" id="Combined-Shape"></path>
                </g>
            </g>
        </g>
    </g>
</svg>