<?xml version="1.0" encoding="UTF-8"?>
<svg width="64px" height="64px" viewBox="0 0 64 64" version="1.1" xmlns="http://www.w3.org/2000/svg" xmlns:xlink="http://www.w3.org/1999/xlink">
    <!-- Generator: Sketch 64 (93537) - https://sketch.com -->
    <title>Icon/Big/venue</title>
    <desc>Created with Sketch.</desc>
    <defs>
        <path d="M0,64 L0,61.3333333 L2.666,61.333 L2.66666667,5.33333333 L8,5.333 L8,0 L56,0 L56,5.333 L61.3333333,5.33333333 L61.333,61.333 L64,61.3333333 L64,64 L0,64 Z M8,8 L5.33333333,8 L5.333,61.333 L22.666,61.333 L22.6666667,53.3333333 C22.6666667,48.1875 26.8535156,44 32,44 C37.1464743,44 41.3333333,48.1875 41.3333333,53.3333333 L41.333,61.333 L58.666,61.333 L58.6666667,8 L56,8 L56,13.3333333 L8,13.3333333 L8,8 Z M32,46.6666667 C28.3242188,46.6666667 25.3333333,49.6575521 25.3333333,53.3333333 L25.3333333,61.3333333 L38.6666667,61.3333333 L38.6666667,53.3333333 C38.6666667,49.6575521 35.6757812,46.6666667 32,46.6666667 Z M24,37.3333333 L24,40 L12,40 L12,37.3333333 L24,37.3333333 Z M52,37.3333333 L52,40 L40,40 L40,37.3333333 L52,37.3333333 Z M24,28 L24,30.6666667 L12,30.6666667 L12,28 L24,28 Z M52,28 L52,30.6666667 L40,30.6666667 L40,28 L52,28 Z M24,18.6666667 L24,21.3333333 L12,21.3333333 L12,18.6666667 L24,18.6666667 Z M52,18.6666667 L52,21.3333333 L40,21.3333333 L40,18.6666667 L52,18.6666667 Z M17.333,2.666 L10.6666667,2.66666667 L10.6666667,10.6666667 L17.333,10.666 L17.333,2.666 Z M26.666,2.666 L19.999,2.666 L19.999,10.666 L26.666,10.666 L26.666,2.666 Z M53.3333333,2.66666667 L48,2.666 L48,10.666 L53.3333333,10.6666667 L53.3333333,2.66666667 Z M45.333,2.666 L38.666,2.666 L38.666,10.666 L45.333,10.666 L45.333,2.666 Z M36,2.666 L29.333,2.666 L29.333,10.666 L36,10.666 L36,2.666 Z" id="path-1"></path>
    </defs>
    <g id="Icon/Big/venue" stroke="none" stroke-width="1" fill="none" fill-rule="evenodd">
        <mask id="mask-2" fill="white">
            <use xlink:href="#path-1"></use>
        </mask>
        <use id="Mask" fill="#006CF9" fill-rule="nonzero" xlink:href="#path-1"></use>
    </g>
</svg>