<svg width="24" height="24" xmlns="http://www.w3.org/2000/svg" xmlns:xlink="http://www.w3.org/1999/xlink"><defs><path d="M10.967.574l.091.081 4.657 4.657c.35.35.378.902.081 1.284l-.081.092-4.657 4.657a.973.973 0 01-1.457-1.285l.081-.091L12.63 7.02H.973A.973.973 0 01.86 5.082l.113-.006 11.753-.001-3.044-3.043a.973.973 0 01-.08-1.284l.08-.092a.973.973 0 011.285-.081z" id="a"/></defs><g transform="translate(4 6)" fill="none" fill-rule="evenodd"><mask id="b" fill="#fff"><use xlink:href="#a"/></mask><use fill="#FFF" fill-rule="nonzero" xlink:href="#a"/><g mask="url(#b)" fill="#FFF"><path d="M-4-6h24v24H-4z"/></g></g></svg>