<?xml version="1.0" encoding="UTF-8"?>
<svg width="32px" height="32px" viewBox="0 0 32 32" version="1.1" xmlns="http://www.w3.org/2000/svg" xmlns:xlink="http://www.w3.org/1999/xlink">
    <!-- Generator: Sketch 63.1 (92452) - https://sketch.com -->
    <title>facebook</title>
    <desc>Created with Sketch.</desc>
    <g id="Symbols" stroke="none" stroke-width="1" fill="none" fill-rule="evenodd">
        <g id="Footer/Desktop" transform="translate(-96.000000, -237.000000)" fill="#C4C7CC">
            <path d="M128,253 C128,244.163437 120.836562,237 112,237 C103.163438,237 96,244.163437 96,253 C96,260.986062 101.850969,267.605312 109.5,268.805625 L109.5,257.625 L105.4375,257.625 L105.4375,253 L109.5,253 L109.5,249.475 C109.5,245.465 111.888688,243.25 115.543437,243.25 C117.293969,243.25 119.125,243.5625 119.125,243.5625 L119.125,247.5 L117.107438,247.5 C115.119844,247.5 114.5,248.733344 114.5,249.998656 L114.5,253 L118.9375,253 L118.228125,257.625 L114.5,257.625 L114.5,268.805625 C122.149031,267.605312 128,260.986062 128,253" id="facebook"></path>
        </g>
    </g>
</svg>