<svg width="30" height="30" xmlns="http://www.w3.org/2000/svg"><path d="M15.964 0c2.816.005 3.369.025 4.743.088 1.56.071 2.626.32 3.559.682a7.187 7.187 0 012.597 1.69 7.188 7.188 0 011.691 2.598c.363.932.61 1.998.682 3.559.062 1.374.083 1.926.087 4.742v2.605c-.004 2.816-.025 3.369-.087 4.743-.072 1.56-.32 2.626-.682 3.559a7.188 7.188 0 01-1.691 2.597 7.188 7.188 0 01-2.597 1.691c-.933.363-1.998.61-3.56.682-1.373.062-1.926.083-4.742.087H13.36c-2.816-.004-3.368-.025-4.742-.087-1.56-.072-2.627-.32-3.56-.682a7.188 7.188 0 01-2.596-1.691A7.187 7.187 0 01.77 24.266c-.363-.933-.61-1.998-.682-3.56-.063-1.373-.083-1.926-.087-4.742V13.36c.004-2.816.024-3.368.087-4.742.071-1.56.32-2.627.682-3.56a7.187 7.187 0 011.69-2.596A7.187 7.187 0 015.059.77C5.99.407 7.056.16 8.617.088 9.99.025 10.543.005 13.359.001h2.605zm-.317 2.642h-1.97c-3.023.003-3.534.02-4.94.085-1.43.065-2.206.304-2.722.505a4.542 4.542 0 00-1.686 1.097 4.542 4.542 0 00-1.097 1.686c-.2.516-.44 1.293-.505 2.722-.064 1.406-.082 1.917-.085 4.94v1.97c.003 3.023.02 3.534.085 4.94.065 1.43.304 2.205.505 2.722a4.543 4.543 0 001.097 1.686c.513.513 1.001.83 1.686 1.097.516.2 1.293.44 2.722.505 1.546.07 2.01.085 5.925.085s4.379-.015 5.925-.085c1.43-.066 2.205-.305 2.722-.505a4.542 4.542 0 001.686-1.097 4.542 4.542 0 001.097-1.686c.2-.517.44-1.293.505-2.722.07-1.547.085-2.01.085-5.925s-.015-4.379-.085-5.925c-.066-1.43-.305-2.206-.505-2.722a4.542 4.542 0 00-1.097-1.686 4.542 4.542 0 00-1.686-1.097c-.517-.2-1.293-.44-2.722-.505-1.406-.064-1.917-.082-4.94-.085zm-.985 4.49a7.53 7.53 0 110 15.059 7.53 7.53 0 010-15.058zm0 2.642a4.887 4.887 0 100 9.775 4.887 4.887 0 000-9.775zm7.826-4.698a1.76 1.76 0 110 3.519 1.76 1.76 0 010-3.52z" fill="#006CF9" fill-rule="nonzero"/></svg>