<?xml version="1.0" encoding="UTF-8"?>
<svg width="30px" height="30px" viewBox="0 0 30 30" version="1.1" xmlns="http://www.w3.org/2000/svg" xmlns:xlink="http://www.w3.org/1999/xlink">
    <!-- Generator: Sketch 63.1 (92452) - https://sketch.com -->
    <title>instagram</title>
    <desc>Created with Sketch.</desc>
    <g id="Symbols" stroke="none" stroke-width="1" fill="none" fill-rule="evenodd">
        <g id="Footer/Desktop" transform="translate(-284.000000, -238.000000)" fill="#C4C7CC">
            <path d="M299.964405,238.000575 C302.780459,238.004656 303.33264,238.025291 304.706944,238.087997 C306.267547,238.159177 307.333383,238.407055 308.265997,238.769531 C309.230155,239.144171 310.047822,239.645515 310.862986,240.460621 C311.678092,241.275785 312.179436,242.093452 312.554134,243.05761 C312.916552,243.990224 313.16443,245.05606 313.23561,246.616663 C313.298316,247.990967 313.318951,248.543148 313.323032,251.359242 L313.323032,253.964405 C313.318951,256.780459 313.298316,257.33264 313.23561,258.706944 C313.16443,260.267547 312.916552,261.333383 312.554134,262.265997 C312.179436,263.230155 311.678092,264.047822 310.862986,264.862986 C310.047822,265.678092 309.230155,266.179436 308.265997,266.554134 C307.333383,266.916552 306.267547,267.16443 304.706944,267.23561 C303.33264,267.298316 302.780459,267.318951 299.964405,267.323032 L297.359242,267.323032 C294.543148,267.318951 293.990967,267.298316 292.616663,267.23561 C291.05606,267.16443 289.990224,266.916552 289.05761,266.554134 C288.093452,266.179436 287.275785,265.678092 286.460621,264.862986 C285.645515,264.047822 285.144171,263.230155 284.769531,262.265997 C284.407055,261.333383 284.159177,260.267547 284.087997,258.706944 C284.025291,257.33264 284.004656,256.780459 284.000575,253.964405 L284.000575,251.359242 C284.004656,248.543148 284.025291,247.990967 284.087997,246.616663 C284.159177,245.05606 284.407055,243.990224 284.769531,243.05761 C285.144171,242.093452 285.645515,241.275785 286.460621,240.460621 C287.275785,239.645515 288.093452,239.144171 289.05761,238.769531 C289.990224,238.407055 291.05606,238.159177 292.616663,238.087997 C293.990967,238.025291 294.543148,238.004656 297.359242,238.000575 Z M299.647371,240.641969 L297.676279,240.641969 C294.653618,240.644747 294.142584,240.662938 292.737081,240.727065 C291.307547,240.792251 290.531203,241.031108 290.014552,241.231901 C289.330166,241.49788 288.841743,241.8156 288.3287,242.3287 C287.8156,242.841743 287.49788,243.330166 287.231901,244.014552 C287.031108,244.531203 286.792251,245.307547 286.727065,246.737081 C286.662938,248.142584 286.644747,248.653618 286.641969,251.676279 L286.641969,253.647371 C286.644747,256.669989 286.662938,257.181023 286.727065,258.586526 C286.792251,260.01606 287.031108,260.792404 287.231901,261.309055 C287.49788,261.993441 287.815658,262.481864 288.3287,262.994907 C288.841743,263.508007 289.330166,263.825727 290.014552,264.091706 C290.531203,264.292499 291.307547,264.531356 292.737081,264.596542 C294.28296,264.667081 294.746589,264.682039 298.661833,264.682039 C302.577018,264.682039 303.040706,264.667081 304.586526,264.596542 C306.01606,264.531356 306.792404,264.292499 307.309055,264.091706 C307.993441,263.825727 308.481864,263.508007 308.994907,262.994907 C309.508007,262.481864 309.825727,261.993441 310.091706,261.309055 C310.292499,260.792404 310.531356,260.01606 310.596542,258.586526 C310.667081,257.040473 310.682039,256.576727 310.682039,252.661833 C310.682039,248.74688 310.667081,248.283134 310.596542,246.737081 C310.531356,245.307547 310.292499,244.531203 310.091706,244.014552 C309.825727,243.330166 309.508007,242.841743 308.994907,242.3287 C308.481864,241.8156 307.993441,241.49788 307.309055,241.231901 C306.792404,241.031108 306.01606,240.792251 304.586526,240.727065 C303.181023,240.662938 302.669989,240.644747 299.647371,240.641969 Z M298.661833,245.132653 C302.820065,245.132653 306.190954,248.503542 306.190954,252.661833 C306.190954,256.820065 302.820065,260.190954 298.661833,260.190954 C294.503542,260.190954 291.132653,256.820065 291.132653,252.661833 C291.132653,248.503542 294.503542,245.132653 298.661833,245.132653 Z M298.661833,247.774457 C295.962584,247.774457 293.774457,249.962584 293.774457,252.661833 C293.774457,255.361023 295.962584,257.54915 298.661833,257.54915 C301.361023,257.54915 303.54915,255.361023 303.54915,252.661833 C303.54915,249.962584 301.361023,247.774457 298.661833,247.774457 Z M306.48842,243.075711 C307.460145,243.075711 308.247896,243.863462 308.247896,244.835187 C308.247896,245.806912 307.460145,246.594605 306.48842,246.594605 C305.516753,246.594605 304.729002,245.806912 304.729002,244.835187 C304.729002,243.863462 305.516753,243.075711 306.48842,243.075711 Z" id="instagram"></path>
        </g>
    </g>
</svg>