<svg width="40" height="40" xmlns="http://www.w3.org/2000/svg" xmlns:xlink="http://www.w3.org/1999/xlink"><defs><circle id="a" cx="20" cy="20" r="20"/></defs><g fill="none" fill-rule="evenodd"><g><mask id="b" fill="#fff"><use xlink:href="#a"/></mask><use fill="#BCBABB" xlink:href="#a"/><g mask="url(#b)" fill="#C4C7CC"><path d="M0 0h50v50H0z"/></g></g><path d="M15.806 16.634V27.97H12.28V16.634h3.526zm8.968-.28c3.567 0 4.226 2.346 4.226 5.399v6.216h-3.522v-5.512c0-1.314-.023-3.005-1.83-3.005-1.834 0-2.114 1.432-2.114 2.911v5.606h-3.518V16.634h3.377v1.55h.048c.47-.891 1.62-1.83 3.333-1.83zM14.044 11a2.043 2.043 0 11-.003 4.086A2.043 2.043 0 0114.044 11z" fill="#FFFFFE"/></g></svg>