<?xml version="1.0" encoding="UTF-8"?>
<svg width="29px" height="29px" viewBox="0 0 29 29" version="1.1" xmlns="http://www.w3.org/2000/svg" xmlns:xlink="http://www.w3.org/1999/xlink">
    <!-- Generator: Sketch 63.1 (92452) - https://sketch.com -->
    <title>linked-in</title>
    <desc>Created with Sketch.</desc>
    <g id="Symbols" stroke="none" stroke-width="1" fill="none" fill-rule="evenodd">
        <g id="Footer/Desktop" transform="translate(-160.000000, -238.000000)" fill="#C4C7CC">
            <path d="M186.66945,238 C187.843701,238 188.8,238.929692 188.8,240.076628 L188.8,240.076628 L188.8,264.722593 C188.8,265.869459 187.843701,266.800778 186.66945,266.800778 L186.66945,266.800778 L162.124252,266.800778 C160.952336,266.800778 160,265.869459 160,264.722593 L160,264.722593 L160,240.076628 C160,238.929692 160.952336,238 162.124252,238 L162.124252,238 Z M168.543217,248.797178 L164.267327,248.797178 L164.267327,262.541306 L168.543217,262.541306 L168.543217,248.797178 Z M179.41774,248.456098 C177.339484,248.456098 175.945724,249.595604 175.376148,250.676093 L175.376148,250.676093 L175.317627,250.676093 L175.317627,248.797178 L171.222963,248.797178 L171.222963,262.541306 L175.489441,262.541306 L175.489441,255.743473 C175.489441,253.950465 175.828611,252.21329 178.051295,252.21329 C180.11062,252.21329 180.259594,254.022728 180.270088,255.563287 L180.270865,262.541306 L184.542084,262.541306 L184.542084,255.003569 C184.542084,251.301926 183.74281,248.456098 179.41774,248.456098 Z M166.406439,241.964954 C165.034546,241.964954 163.928228,243.07474 163.928228,244.441963 C163.928228,245.809611 165.034546,246.919396 166.406439,246.919396 C167.772884,246.919396 168.882245,245.809611 168.882245,244.441963 C168.882245,243.07474 167.772884,241.964954 166.406439,241.964954 Z" id="linked-in"></path>
        </g>
    </g>
</svg>