<svg width="29" height="29" xmlns="http://www.w3.org/2000/svg"><path d="M26.67 0c1.174 0 2.13.93 2.13 2.077v24.646c0 1.146-.956 2.078-2.13 2.078H2.123C.952 28.8 0 27.869 0 26.723V2.077C0 .93.952 0 2.124 0H26.67zM8.542 10.797H4.267v13.744h4.276V10.797zm10.875-.34c-2.079 0-3.472 1.139-4.042 2.22h-.058v-1.88h-4.095v13.744h4.266v-6.798c0-1.793.34-3.53 2.562-3.53 2.06 0 2.209 1.81 2.22 3.35v6.978h4.271v-7.537c0-3.702-.8-6.548-5.124-6.548zM6.406 3.964a2.476 2.476 0 102.476 2.477 2.477 2.477 0 00-2.476-2.477z" fill="#006CF9" fill-rule="nonzero"/></svg>