<?xml version="1.0" encoding="UTF-8"?>
<svg width="24px" height="24px" viewBox="0 0 24 24" version="1.1" xmlns="http://www.w3.org/2000/svg" xmlns:xlink="http://www.w3.org/1999/xlink">
    <!-- Generator: Sketch 64 (93537) - https://sketch.com -->
    <title>Icon/star</title>
    <desc>Created with Sketch.</desc>
    <defs>
        <path d="M13.1534002,10.66798 L17.8188635,7.08353875 C18.1602389,6.81802458 17.9895512,6.26803094 17.5533493,6.24906565 L11.7499682,6.09734326 C11.6172111,6.09734326 11.484454,6.00251677 11.4465234,5.86975969 L9.45516715,0.312927415 C9.30344477,-0.104309138 8.73448583,-0.104309138 8.58276345,0.312927415 L6.64830307,5.7938985 C6.61037247,5.92665558 6.47761538,6.02148207 6.3448583,6.02148207 L0.446650665,6.17320445 C0.0104488138,6.19216975 -0.160238867,6.74216339 0.181136495,7.00767756 L4.78970387,10.5541883 C4.90349566,10.6300495 4.94142626,10.7817718 4.90349566,10.9145289 L3.23454945,16.5661877 C3.10179237,16.9834242 3.57592481,17.3247996 3.93626547,17.0782507 L8.73448583,13.7782889 C8.84827762,13.7024277 9,13.7024277 9.11379179,13.7782889 L13.968908,17.1161813 C14.3292487,17.3627302 14.8033811,17.0213548 14.6706241,16.6041183 L13.0206431,11.0283207 C13.0016778,10.8955636 13.0396084,10.7438412 13.1534002,10.66798 Z" id="path-1"></path>
    </defs>
    <g id="Icon/star" stroke="none" stroke-width="1" fill="none" fill-rule="evenodd">
        <g id="Group" transform="translate(3.000000, 3.000000)">
            <mask id="mask-2" fill="white">
                <use xlink:href="#path-1"></use>
            </mask>
            <use id="Mask" fill="#FFD900" fill-rule="nonzero" xlink:href="#path-1"></use>
            <g id="Colour/Yellow/03-Primary" mask="url(#mask-2)" fill="#FFBC42">
                <g transform="translate(0.000000, -0.000000)" id="Rectangle">
                    <rect x="0" y="0" width="18" height="17.1529412"></rect>
                </g>
            </g>
        </g>
    </g>
</svg>