<svg width="40" height="40" xmlns="http://www.w3.org/2000/svg" xmlns:xlink="http://www.w3.org/1999/xlink"><defs><circle id="a" cx="20" cy="20" r="20"/><path d="M5.66 14.824c6.794 0 10.508-5.703 10.508-10.648 0-.162-.003-.323-.01-.484A7.57 7.57 0 0018 1.755a7.296 7.296 0 01-2.12.589 3.746 3.746 0 001.623-2.07 7.342 7.342 0 01-2.345.908A3.667 3.667 0 0012.463 0c-2.04 0-3.694 1.676-3.694 3.742 0 .294.032.58.096.853C5.795 4.44 3.074 2.95 1.253.685a3.767 3.767 0 00-.5 1.881c0 1.299.652 2.445 1.643 3.115a3.63 3.63 0 01-1.673-.468v.048c0 1.812 1.273 3.325 2.962 3.668a3.658 3.658 0 01-1.667.065c.47 1.486 1.833 2.568 3.45 2.599A7.349 7.349 0 010 13.143a10.356 10.356 0 005.66 1.68" id="c"/></defs><g fill="none" fill-rule="evenodd"><g><mask id="b" fill="#fff"><use xlink:href="#a"/></mask><use fill="#BCBABB" xlink:href="#a"/><g mask="url(#b)" fill="#C4C7CC"><path d="M0 0h50v50H0z"/></g></g><g transform="translate(11 13)"><mask id="d" fill="#fff"><use xlink:href="#c"/></mask><use fill="#6F757D" xlink:href="#c"/><g mask="url(#d)" fill="#FFF"><path d="M0-2.118h18v18H0z"/></g></g></g></svg>