<svg width="30" height="25" xmlns="http://www.w3.org/2000/svg"><path d="M9.435 24.595c11.321 0 17.512-9.461 17.512-17.666 0-.269-.005-.536-.018-.802A12.583 12.583 0 0030 2.912c-1.103.494-2.29.827-3.535.977A6.22 6.22 0 0029.172.455a12.27 12.27 0 01-3.908 1.507A6.124 6.124 0 0020.77 0c-3.4 0-6.156 2.78-6.156 6.209 0 .487.054.96.16 1.415-5.116-.26-9.652-2.73-12.687-6.487a6.229 6.229 0 00-.834 3.12 6.219 6.219 0 002.74 5.17 6.069 6.069 0 01-2.788-.778c-.002.026-.002.052-.002.08 0 3.007 2.122 5.517 4.938 6.087a6.122 6.122 0 01-2.78.106c.784 2.467 3.056 4.262 5.75 4.313a12.283 12.283 0 01-7.644 2.657c-.496 0-.986-.028-1.468-.086a17.316 17.316 0 009.435 2.79" fill="#006CF9" fill-rule="nonzero"/></svg>