<?xml version="1.0" encoding="UTF-8"?>
<svg width="30px" height="25px" viewBox="0 0 30 25" version="1.1" xmlns="http://www.w3.org/2000/svg" xmlns:xlink="http://www.w3.org/1999/xlink">
    <!-- Generator: Sketch 63.1 (92452) - https://sketch.com -->
    <title>twitter</title>
    <desc>Created with Sketch.</desc>
    <g id="Symbols" stroke="none" stroke-width="1" fill="none" fill-rule="evenodd">
        <g id="Footer/Desktop" transform="translate(-222.000000, -241.000000)" fill="#C4C7CC">
            <path d="M231.43476,265.595232 C242.75604,265.595232 248.94708,256.133637 248.94708,247.929295 C248.94708,247.660437 248.94168,247.392789 248.92944,247.126595 C250.13112,246.250295 251.17584,245.156826 252,243.9118 C250.89708,244.405937 249.71028,244.739074 248.46528,244.889179 C249.73608,244.120737 250.71168,242.9044 251.17176,241.454674 C249.98232,242.165858 248.66556,242.683116 247.2636,242.961658 C246.14052,241.754884 244.54092,241 242.77092,241 C239.37156,241 236.61504,243.7807 236.61504,247.208547 C236.61504,247.695905 236.66916,248.169584 236.77464,248.624258 C231.6594,248.364842 227.1234,245.894037 224.088,242.137168 C223.55892,243.054505 223.25448,244.120737 223.25448,245.257784 C223.25448,247.412037 224.34108,249.313653 225.99336,250.426126 C224.98392,250.394774 224.03532,250.1149 223.20576,249.649332 C223.20432,249.675237 223.20432,249.701263 223.20432,249.7285 C223.20432,252.735932 225.32628,255.246321 228.14232,255.815632 C227.62548,255.957505 227.0814,256.034011 226.5198,256.034011 C226.12332,256.034011 225.73764,255.994426 225.36276,255.922037 C226.14636,258.388847 228.41844,260.183937 231.11268,260.234537 C229.00572,261.899858 226.35204,262.892247 223.46832,262.892247 C222.97164,262.892247 222.4818,262.863679 222,262.8063 C224.72412,264.567253 227.95836,265.595232 231.43476,265.595232" id="twitter"></path>
        </g>
    </g>
</svg>