<?xml version="1.0" encoding="UTF-8"?>
<svg width="24px" height="24px" viewBox="0 0 24 24" version="1.1" xmlns="http://www.w3.org/2000/svg" xmlns:xlink="http://www.w3.org/1999/xlink">
    <title>Icon/video</title>
    <g id="Icon/video" stroke="none" stroke-width="1" fill="none" fill-rule="evenodd">
        <path d="M12,3 C16.9705627,3 21,7.02943725 21,12 C21,16.9705627 16.9705627,21 12,21 C7.02943725,21 3,16.9705627 3,12 C3,7.02943725 7.02943725,3 12,3 Z M10.0940909,8.6 C9.76598353,8.6 9.5,8.86598353 9.5,9.19409085 L9.5,9.19409085 L9.5,15.0058232 C9.5,15.1148847 9.5300214,15.2218418 9.58677431,15.3149735 C9.75751327,15.5951567 10.1230579,15.6838787 10.4032411,15.5131398 L10.4032411,15.5131398 L15.1979203,12.5913423 C15.2796674,12.541527 15.3481657,12.4726949 15.3975832,12.3907067 C15.5669583,12.109697 15.4764607,11.7445879 15.195451,11.5752127 L15.195451,11.5752127 L10.4007718,8.68527777 C10.3082051,8.62948435 10.2021718,8.6 10.0940909,8.6 Z" id="Combined-Shape" fill="#FFFFFF"></path>
    </g>
</svg>