<svg width="1200" height="1200" xmlns="http://www.w3.org/2000/svg"><g fill="none" fill-rule="evenodd"><path d="M298.218 839.952c39.16 0 58.363-19.956 58.363-46.59 0-25.884-18.369-41.08-36.57-42v-1.67c16.698-3.923 29.89-15.613 29.89-36.403 0-25.466-18.368-44.336-55.44-44.336H229v170.999h69.218zm-7.598-98.275h-30.643v-47.175h31.31c18.203 0 27.638 9.602 27.638 22.795 0 15.029-12.19 24.38-28.305 24.38zm2.672 72.391h-33.315v-50.097h34.15c19.12 0 30.977 11.69 30.977 26.969 0 13.61-9.352 23.128-31.812 23.128zm114.95 25.884v-75.397c0-16.281 12.273-27.804 28.889-27.804 5.093 0 11.439.919 14.027 1.754V710.7c-2.755-.5-7.514-.834-10.854-.834-14.695 0-26.97 8.35-31.645 23.211h-1.336v-21.375h-29.307v128.25h30.226zm110.274 2.505c29.891 0 50.43-14.612 55.775-36.905l-28.222-3.173c-4.091 10.854-14.11 16.532-27.136 16.532-19.538 0-32.48-12.858-32.73-34.818h89.34v-9.268c0-45.004-27.053-64.792-58.614-64.792-36.738 0-60.701 26.969-60.701 66.546 0 40.244 23.629 65.878 62.288 65.878zm28.054-78.737h-60.284c.919-16.365 13.026-30.142 31.06-30.142 17.368 0 29.057 12.692 29.224 30.142zm107.101 78.737c29.892 0 50.432-14.612 55.775-36.905l-28.221-3.173c-4.091 10.854-14.11 16.532-27.136 16.532-19.538 0-32.48-12.858-32.73-34.818h89.34v-9.268c0-45.004-27.053-64.792-58.614-64.792-36.738 0-60.701 26.969-60.701 66.546 0 40.244 23.629 65.878 62.287 65.878zm28.055-78.737h-60.284c.918-16.365 13.025-30.142 31.06-30.142 17.367 0 29.057 12.692 29.224 30.142zm153.942 76.232v-25.049h-65.126v-1.085l62.955-81.492v-20.624H732.551v25.05h63.958v1.085l-66.129 82.91v19.205h105.288zm77.377 2.505c29.891 0 50.431-14.612 55.775-36.905l-28.222-3.173c-4.09 10.854-14.11 16.532-27.136 16.532-19.538 0-32.48-12.858-32.73-34.818h89.34v-9.268c0-45.004-27.052-64.792-58.614-64.792-36.738 0-60.7 26.969-60.7 66.546 0 40.244 23.628 65.878 62.287 65.878zm28.054-78.737h-60.283c.918-16.365 13.025-30.142 31.06-30.142 17.367 0 29.056 12.692 29.223 30.142z" fill="#132236" fill-rule="nonzero"/><path d="M589.947 241.955c83.325 0 150.873 67.548 150.873 150.873 0 8.412-.69 16.74-2.051 24.926l-.755 4.122a12.53 12.53 0 01-1.85 5.115l-.83 1.158-82.133 101.67-19.494-15.747 78.93-97.704c-1.7-8.384-8.369-15.182-17.131-16.78-9.834-1.792-19.541 3.474-23.451 12.51a21.308 21.308 0 00-.868 2.387l-.027.107a12.53 12.53 0 01-.115.502l-.117.366-.068.26-.013-.003-.263.838-35.749 93.008-23.391-8.99 33.942-88.304c-4.823-8.59-27.557-17.563-55.462-17.563-27.78 0-50.462 8.894-55.41 17.479l33.91 88.387-23.397 8.975-35.72-93.108a12.53 12.53 0 01-.549-1.846 20.53 20.53 0 00-.893-2.492c-3.912-9.039-13.62-14.305-23.453-12.513-8.737 1.593-15.39 8.355-17.114 16.701l78.856 97.783-19.507 15.73L444.58 428.04a12.53 12.53 0 01-2.506-5.272l-.027.003a151.425 151.425 0 01-2.974-29.942c0-83.325 67.549-150.873 150.873-150.873zm0 25.06l-.808.014c-26.668.95-52.103 48.8-55.46 111.705l-.14 2.883.668-.343c14.007-7.105 32.566-11.224 52.688-11.6l3.03-.028c20.85 0 40.203 3.999 54.808 11.173l1.614.818-.132-2.903c-3.328-62.386-28.372-109.962-54.798-111.672l-1.47-.047zm-54.702 12.482l-.889.434c-37.311 18.408-64.18 54.767-69.326 97.8l-.315 2.854.91-.53a46.3 46.3 0 0112.112-4.67l2.181-.45a46.336 46.336 0 0128.66 3.933c1.866-39.273 11.561-74.491 26.667-99.371zm109.404 0l.365.603c14.899 24.846 24.454 59.817 26.305 98.777A46.337 46.337 0 01700 374.935a46.37 46.37 0 0114.261 5.104l.9.525-.297-2.833c-5.187-43.374-32.441-79.968-70.215-98.234z" fill="#FFBC42" fill-rule="nonzero"/><path d="M589.924 491.574c-40.97 0-74.184 33.213-74.184 74.183 0 40.97 33.214 74.184 74.184 74.184s74.183-33.213 74.183-74.184c0-40.97-33.212-74.183-74.183-74.183z" fill="#006CF9" fill-rule="nonzero"/><path d="M579.848 591.947l34.394-21.498c3.468-2.166 3.468-7.217 0-9.384l-34.394-21.498c-3.687-2.303-8.467.347-8.467 4.694v42.992c0 4.347 4.78 6.997 8.467 4.694" fill="#FFF"/></g></svg>